<svg width="364" height="270" viewBox="0 0 364 270" fill="none" xmlns="http://www.w3.org/2000/svg">
<g filter="url(#filter0_b_1905_266)">
<rect x="2" y="38" width="360" height="230" rx="15.1928" fill="url(#paint0_linear_1905_266)"/>
<rect x="1.36697" y="37.367" width="361.266" height="231.266" rx="15.8259" stroke="url(#paint1_radial_1905_266)" stroke-width="1.26607"/>
<rect x="1.36697" y="37.367" width="361.266" height="231.266" rx="15.8259" stroke="url(#paint2_linear_1905_266)" stroke-opacity="0.4" stroke-width="1.26607"/>
<rect x="1.36697" y="37.367" width="361.266" height="231.266" rx="15.8259" stroke="url(#paint3_linear_1905_266)" stroke-width="1.26607"/>
</g>
<mask id="mask0_1905_266" style="mask-type:alpha" maskUnits="userSpaceOnUse" x="2" y="38" width="360" height="230">
<rect x="2" y="38" width="360" height="230" rx="15.4011" fill="#16084C"/>
</mask>
<g mask="url(#mask0_1905_266)">
<g filter="url(#filter1_f_1905_266)">
<path d="M453.518 -97.5064C475.881 -51.3533 416.166 24.508 320.142 71.9346C224.118 119.361 128.147 120.394 105.784 74.2406C83.4215 28.0876 143.136 -47.7738 239.16 -95.2004C335.184 -142.627 431.156 -143.659 453.518 -97.5064Z" fill="white"/>
</g>
<g filter="url(#filter2_f_1905_266)">
<path d="M401.134 -131.756C423.497 -85.6033 363.783 -9.74198 267.758 37.6846C171.734 85.1113 75.7629 86.1437 53.4003 39.9906C31.0377 -6.16245 90.7521 -82.0238 186.776 -129.45C282.8 -176.877 378.772 -177.909 401.134 -131.756Z" fill="#244AA0"/>
</g>
</g>
<path fill-rule="evenodd" clip-rule="evenodd" d="M23.3845 76.4548L23.3807 76.4599L23.3771 76.4651C23.1722 76.7552 22.7132 76.8405 22.3542 76.587C22.0669 76.384 21.9805 75.9319 22.2252 75.5745C22.5903 75.1092 22.8554 74.5651 23.0295 74.0333C23.2108 73.4796 23.2951 72.8505 23.2918 72.2334C23.2886 71.6164 23.1976 70.9881 23.0104 70.4364C22.8306 69.9065 22.5597 69.3653 22.1897 68.9039C21.9412 68.5491 22.0228 68.0961 22.3079 67.8901C22.6642 67.6328 23.124 67.7131 23.332 68.001L23.3357 68.0062L23.3396 68.0113C23.8001 68.6185 24.1778 69.2932 24.4035 69.9552C24.6411 70.7338 24.7925 71.4871 24.7964 72.2254C24.8005 73.0024 24.7263 73.7377 24.4412 74.4616C24.1307 75.2501 23.83 75.8542 23.3845 76.4548ZM26.7142 77.8969L26.7232 77.8841L26.7314 77.8709C27.7521 76.2356 28.3408 74.2623 28.3299 72.2066C28.3189 70.1514 27.7095 68.1849 26.672 66.5608C26.4471 66.2043 26.5481 65.7827 26.9271 65.5089C27.1817 65.325 27.6595 65.3901 27.943 65.7701C29.1145 67.6287 29.8221 69.8755 29.8344 72.1986C29.8472 74.601 29.1641 76.7748 28.0115 78.647C27.7449 79.014 27.3367 79.1168 26.9847 78.9088C26.603 78.6292 26.5333 78.153 26.7142 77.8969ZM32.6892 63.3271L32.6992 63.347L32.7109 63.366C34.2982 65.9539 35.1803 68.939 35.1975 72.17C35.2147 75.3996 34.3652 78.3926 32.8069 80.9964C32.568 81.3806 32.1647 81.4889 31.7558 81.2986C31.3836 81.056 31.2836 80.6541 31.478 80.2481C32.8033 77.8945 33.6274 75.121 33.6117 72.1785C33.5961 69.249 32.8301 66.4799 31.3894 64.1262C31.1944 63.7242 31.291 63.324 31.6587 63.0787C32.1024 62.8667 32.5346 63.0221 32.6892 63.3271ZM37.3892 60.8643L37.396 60.8779L37.4037 60.891C39.3272 64.216 40.4573 68.0174 40.4793 72.1419C40.5012 76.2621 39.4139 80.0718 37.5295 83.4146C37.2901 83.7943 36.8887 83.9006 36.4817 83.7112C36.1107 83.4695 36.0102 83.0693 36.2022 82.6646C38.0176 79.5663 38.9951 75.9767 38.9748 72.1499C38.9543 68.3133 37.8525 64.7376 36.0925 61.6698C35.872 61.2219 36.0274 60.7833 36.3352 60.6274C36.787 60.3984 37.2319 60.5538 37.3892 60.8643Z" fill="white"/>
<path d="M317.629 83.9998C326.107 84.0401 333.059 77.314 333 69.1302C333.058 60.7228 326.107 53.9974 317.629 54H300.641C292.061 53.998 285.109 60.7228 285 69.1302C285.109 77.314 292.061 84.0394 300.64 83.9998H317.629V83.9998Z" fill="#9E9E9E"/>
<path d="M286.079 69.1302C286.164 61.2863 292.643 55.0175 300.641 55.0439C308.63 55.0175 315.11 61.2863 315.202 69.1309C315.11 76.7518 308.63 83.0205 300.641 82.9565C292.643 83.0205 286.164 76.7511 286.079 69.1302V69.1302Z" fill="white"/>
<path d="M297.404 60.7828C294.053 62.2458 291.539 65.3736 291.472 69.1302C291.539 72.7457 293.933 75.9302 297.404 77.217V60.7828ZM303.876 77.2176C307.339 75.9309 309.733 72.7457 309.808 69.1309C309.733 65.2931 307.339 62.1079 303.876 60.7835V77.2176Z" fill="#9E9E9E"/>
<g filter="url(#filter3_di_1905_266)">
<path d="M23.1506 146.312V143.406L30.4375 131.925H32.9432V135.948H31.4602L26.8665 143.218V143.354H37.2216V146.312H23.1506ZM31.5284 149.38V145.425L31.5966 144.139V131.925H35.0568V149.38H31.5284ZM40.6404 149.38V146.721L46.8535 140.968C47.3819 140.457 47.8251 139.996 48.183 139.587C48.5466 139.178 48.8222 138.778 49.0097 138.386C49.1972 137.988 49.291 137.559 49.291 137.099C49.291 136.587 49.1745 136.147 48.9415 135.778C48.7086 135.403 48.3904 135.116 47.987 134.917C47.5836 134.712 47.1262 134.61 46.6148 134.61C46.0807 134.61 45.6148 134.718 45.2171 134.934C44.8194 135.15 44.5126 135.46 44.2966 135.863C44.0807 136.266 43.9728 136.746 43.9728 137.303H40.4699C40.4699 136.161 40.7285 135.17 41.2455 134.329C41.7626 133.488 42.487 132.837 43.4188 132.377C44.3506 131.917 45.4245 131.687 46.6404 131.687C47.8904 131.687 48.9785 131.908 49.9046 132.352C50.8364 132.789 51.5609 133.397 52.0779 134.175C52.5949 134.954 52.8535 135.846 52.8535 136.852C52.8535 137.511 52.7228 138.161 52.4614 138.803C52.2057 139.445 51.7484 140.158 51.0893 140.943C50.4302 141.721 49.5012 142.656 48.3023 143.746L45.754 146.244V146.363H53.0836V149.38H40.6404ZM56.0784 146.312V143.406L63.3653 131.925H65.871V135.948H64.388L59.7943 143.218V143.354H70.1494V146.312H56.0784ZM64.4562 149.38V145.425L64.5244 144.139V131.925H67.9846V149.38H64.4562ZM73.5682 149.38V146.721L79.7813 140.968C80.3097 140.457 80.7529 139.996 81.1108 139.587C81.4745 139.178 81.75 138.778 81.9375 138.386C82.125 137.988 82.2188 137.559 82.2188 137.099C82.2188 136.587 82.1023 136.147 81.8693 135.778C81.6364 135.403 81.3182 135.116 80.9148 134.917C80.5114 134.712 80.054 134.61 79.5426 134.61C79.0086 134.61 78.5426 134.718 78.1449 134.934C77.7472 135.15 77.4404 135.46 77.2245 135.863C77.0086 136.266 76.9006 136.746 76.9006 137.303H73.3978C73.3978 136.161 73.6563 135.17 74.1733 134.329C74.6904 133.488 75.4148 132.837 76.3466 132.377C77.2784 131.917 78.3523 131.687 79.5682 131.687C80.8182 131.687 81.9063 131.908 82.8324 132.352C83.7642 132.789 84.4887 133.397 85.0057 134.175C85.5228 134.954 85.7813 135.846 85.7813 136.852C85.7813 137.511 85.6506 138.161 85.3892 138.803C85.1336 139.445 84.6762 140.158 84.0171 140.943C83.358 141.721 82.429 142.656 81.2301 143.746L78.6818 146.244V146.363H86.0114V149.38H73.5682ZM95.8959 146.312V143.406L103.183 131.925H105.688V135.948H104.206L99.6118 143.218V143.354H109.967V146.312H95.8959ZM104.274 149.38V145.425L104.342 144.139V131.925H107.802V149.38H104.274ZM119.761 149.619C118.556 149.619 117.482 149.397 116.539 148.954C115.602 148.511 114.857 147.9 114.306 147.121C113.755 146.343 113.468 145.451 113.445 144.445H117.025C117.065 145.121 117.349 145.67 117.877 146.09C118.406 146.511 119.033 146.721 119.761 146.721C120.34 146.721 120.852 146.593 121.295 146.337C121.744 146.076 122.093 145.715 122.343 145.255C122.599 144.789 122.727 144.255 122.727 143.653C122.727 143.039 122.596 142.499 122.335 142.033C122.079 141.568 121.724 141.204 121.269 140.943C120.815 140.681 120.295 140.548 119.71 140.542C119.198 140.542 118.701 140.647 118.218 140.857C117.741 141.068 117.369 141.354 117.102 141.718L113.82 141.13L114.647 131.925H125.318V134.943H117.69L117.238 139.315H117.34C117.647 138.883 118.11 138.525 118.729 138.241C119.349 137.957 120.042 137.815 120.809 137.815C121.86 137.815 122.798 138.062 123.622 138.556C124.445 139.05 125.096 139.729 125.573 140.593C126.05 141.451 126.286 142.44 126.281 143.559C126.286 144.735 126.014 145.781 125.462 146.695C124.917 147.604 124.153 148.32 123.17 148.843C122.193 149.36 121.056 149.619 119.761 149.619ZM136.513 149.619C135.616 149.613 134.749 149.462 133.914 149.167C133.084 148.871 132.34 148.391 131.681 147.727C131.022 147.062 130.499 146.181 130.113 145.085C129.732 143.988 129.542 142.641 129.542 141.045C129.547 139.579 129.715 138.269 130.045 137.116C130.38 135.957 130.857 134.974 131.476 134.167C132.101 133.36 132.849 132.746 133.718 132.326C134.587 131.9 135.562 131.687 136.641 131.687C137.806 131.687 138.834 131.914 139.726 132.369C140.618 132.818 141.334 133.428 141.874 134.201C142.42 134.974 142.749 135.84 142.863 136.8H139.224C139.082 136.193 138.783 135.715 138.329 135.369C137.874 135.022 137.312 134.849 136.641 134.849C135.505 134.849 134.641 135.343 134.05 136.332C133.465 137.32 133.167 138.664 133.155 140.363H133.275C133.536 139.846 133.888 139.406 134.332 139.042C134.78 138.673 135.289 138.391 135.857 138.198C136.431 137.999 137.036 137.9 137.672 137.9C138.707 137.9 139.627 138.144 140.434 138.633C141.241 139.116 141.877 139.781 142.343 140.627C142.809 141.474 143.042 142.443 143.042 143.533C143.042 144.715 142.766 145.766 142.215 146.687C141.67 147.607 140.905 148.329 139.922 148.852C138.945 149.369 137.809 149.624 136.513 149.619ZM136.496 146.721C137.064 146.721 137.573 146.585 138.022 146.312C138.471 146.039 138.823 145.67 139.079 145.204C139.334 144.738 139.462 144.215 139.462 143.636C139.462 143.056 139.334 142.536 139.079 142.076C138.829 141.616 138.482 141.249 138.039 140.977C137.596 140.704 137.09 140.568 136.522 140.568C136.096 140.568 135.701 140.647 135.337 140.806C134.979 140.965 134.664 141.187 134.391 141.471C134.124 141.755 133.914 142.085 133.76 142.46C133.607 142.829 133.53 143.224 133.53 143.644C133.53 144.207 133.658 144.721 133.914 145.187C134.175 145.653 134.528 146.025 134.971 146.303C135.42 146.582 135.928 146.721 136.496 146.721ZM146.618 149.38V146.721L152.831 140.968C153.36 140.457 153.803 139.996 154.161 139.587C154.524 139.178 154.8 138.778 154.988 138.386C155.175 137.988 155.269 137.559 155.269 137.099C155.269 136.587 155.152 136.147 154.919 135.778C154.686 135.403 154.368 135.116 153.965 134.917C153.561 134.712 153.104 134.61 152.593 134.61C152.059 134.61 151.593 134.718 151.195 134.934C150.797 135.15 150.49 135.46 150.274 135.863C150.059 136.266 149.951 136.746 149.951 137.303H146.448C146.448 136.161 146.706 135.17 147.223 134.329C147.74 133.488 148.465 132.837 149.397 132.377C150.328 131.917 151.402 131.687 152.618 131.687C153.868 131.687 154.956 131.908 155.882 132.352C156.814 132.789 157.539 133.397 158.056 134.175C158.573 134.954 158.831 135.846 158.831 136.852C158.831 137.511 158.701 138.161 158.439 138.803C158.184 139.445 157.726 140.158 157.067 140.943C156.408 141.721 155.479 142.656 154.28 143.746L151.732 146.244V146.363H159.061V149.38H146.618ZM169.9 149.38L177.136 135.062V134.943H168.707V131.925H180.954V134.985L173.71 149.38H169.9ZM185.603 149.38L192.838 135.062V134.943H184.409V131.925H196.657V134.985L189.412 149.38H185.603ZM207.739 131.925V149.38H204.049V135.428H203.947L199.95 137.934V134.661L204.271 131.925H207.739ZM219.692 149.764C218.226 149.758 216.964 149.397 215.908 148.681C214.856 147.965 214.047 146.928 213.479 145.57C212.916 144.212 212.638 142.579 212.643 140.67C212.643 138.766 212.925 137.144 213.487 135.803C214.055 134.462 214.865 133.443 215.916 132.744C216.973 132.039 218.231 131.687 219.692 131.687C221.152 131.687 222.408 132.039 223.459 132.744C224.516 133.448 225.328 134.471 225.896 135.812C226.464 137.147 226.746 138.766 226.74 140.67C226.74 142.585 226.456 144.221 225.888 145.579C225.325 146.937 224.518 147.974 223.467 148.69C222.416 149.406 221.158 149.764 219.692 149.764ZM219.692 146.704C220.692 146.704 221.49 146.201 222.087 145.195C222.683 144.19 222.979 142.681 222.973 140.67C222.973 139.346 222.837 138.244 222.564 137.363C222.297 136.482 221.916 135.82 221.422 135.377C220.933 134.934 220.356 134.712 219.692 134.712C218.697 134.712 217.902 135.21 217.305 136.204C216.709 137.198 216.408 138.687 216.402 140.67C216.402 142.011 216.535 143.13 216.802 144.028C217.075 144.92 217.459 145.59 217.953 146.039C218.447 146.482 219.027 146.704 219.692 146.704ZM243.298 149.619C242.025 149.619 240.891 149.4 239.897 148.962C238.909 148.519 238.127 147.911 237.553 147.139C236.985 146.36 236.693 145.462 236.676 144.445H240.391C240.414 144.871 240.553 145.246 240.809 145.57C241.07 145.889 241.417 146.136 241.849 146.312C242.281 146.488 242.766 146.576 243.306 146.576C243.869 146.576 244.366 146.477 244.798 146.278C245.23 146.079 245.568 145.803 245.812 145.451C246.056 145.099 246.178 144.693 246.178 144.232C246.178 143.766 246.048 143.354 245.786 142.996C245.531 142.633 245.161 142.349 244.678 142.144C244.201 141.94 243.633 141.837 242.974 141.837H241.346V139.127H242.974C243.531 139.127 244.022 139.031 244.448 138.837C244.88 138.644 245.215 138.377 245.454 138.036C245.693 137.69 245.812 137.286 245.812 136.826C245.812 136.389 245.707 136.005 245.497 135.675C245.292 135.34 245.002 135.079 244.627 134.891C244.258 134.704 243.826 134.61 243.332 134.61C242.832 134.61 242.374 134.701 241.96 134.883C241.545 135.059 241.212 135.312 240.962 135.641C240.712 135.971 240.579 136.357 240.562 136.8H237.025C237.042 135.795 237.329 134.908 237.886 134.141C238.443 133.374 239.193 132.775 240.136 132.343C241.085 131.906 242.156 131.687 243.349 131.687C244.553 131.687 245.607 131.906 246.511 132.343C247.414 132.781 248.116 133.371 248.616 134.116C249.122 134.854 249.372 135.684 249.366 136.604C249.372 137.582 249.068 138.397 248.454 139.05C247.846 139.704 247.053 140.119 246.076 140.295V140.431C247.36 140.596 248.337 141.042 249.008 141.769C249.684 142.491 250.019 143.394 250.014 144.479C250.019 145.474 249.732 146.357 249.153 147.13C248.579 147.903 247.786 148.511 246.775 148.954C245.764 149.397 244.605 149.619 243.298 149.619ZM260.001 149.619C258.797 149.619 257.723 149.397 256.78 148.954C255.842 148.511 255.098 147.9 254.547 147.121C253.996 146.343 253.709 145.451 253.686 144.445H257.266C257.305 145.121 257.589 145.67 258.118 146.09C258.646 146.511 259.274 146.721 260.001 146.721C260.581 146.721 261.092 146.593 261.535 146.337C261.984 146.076 262.334 145.715 262.584 145.255C262.839 144.789 262.967 144.255 262.967 143.653C262.967 143.039 262.837 142.499 262.575 142.033C262.32 141.568 261.964 141.204 261.51 140.943C261.055 140.681 260.535 140.548 259.95 140.542C259.439 140.542 258.942 140.647 258.459 140.857C257.981 141.068 257.609 141.354 257.342 141.718L254.061 141.13L254.888 131.925H265.558V134.943H257.93L257.479 139.315H257.581C257.888 138.883 258.351 138.525 258.97 138.241C259.589 137.957 260.283 137.815 261.05 137.815C262.101 137.815 263.038 138.062 263.862 138.556C264.686 139.05 265.337 139.729 265.814 140.593C266.291 141.451 266.527 142.44 266.521 143.559C266.527 144.735 266.254 145.781 265.703 146.695C265.158 147.604 264.393 148.32 263.41 148.843C262.433 149.36 261.297 149.619 260.001 149.619ZM276.899 149.764C275.433 149.758 274.172 149.397 273.115 148.681C272.064 147.965 271.254 146.928 270.686 145.57C270.123 144.212 269.845 142.579 269.851 140.67C269.851 138.766 270.132 137.144 270.694 135.803C271.262 134.462 272.072 133.443 273.123 132.744C274.18 132.039 275.439 131.687 276.899 131.687C278.359 131.687 279.615 132.039 280.666 132.744C281.723 133.448 282.535 134.471 283.103 135.812C283.672 137.147 283.953 138.766 283.947 140.67C283.947 142.585 283.663 144.221 283.095 145.579C282.532 146.937 281.726 147.974 280.674 148.69C279.623 149.406 278.365 149.764 276.899 149.764ZM276.899 146.704C277.899 146.704 278.697 146.201 279.294 145.195C279.89 144.19 280.186 142.681 280.18 140.67C280.18 139.346 280.044 138.244 279.771 137.363C279.504 136.482 279.123 135.82 278.629 135.377C278.14 134.934 277.564 134.712 276.899 134.712C275.905 134.712 275.109 135.21 274.512 136.204C273.916 137.198 273.615 138.687 273.609 140.67C273.609 142.011 273.743 143.13 274.01 144.028C274.282 144.92 274.666 145.59 275.16 146.039C275.655 146.482 276.234 146.704 276.899 146.704ZM287.76 149.38L294.996 135.062V134.943H286.567V131.925H298.814V134.985L291.57 149.38H287.76Z" fill="#E8E8E8"/>
</g>
<path d="M28.6477 173.396V180.669H27.7955L23.8324 174.958H23.7614V180.669H22.8807V173.396H23.733L27.7102 179.12H27.7812V173.396H28.6477ZM32.5123 180.782C32.0198 180.782 31.5878 180.665 31.2161 180.431C30.8468 180.196 30.5579 179.869 30.3496 179.447C30.1436 179.026 30.0407 178.533 30.0407 177.97C30.0407 177.402 30.1436 176.906 30.3496 176.482C30.5579 176.058 30.8468 175.729 31.2161 175.495C31.5878 175.26 32.0198 175.143 32.5123 175.143C33.0047 175.143 33.4355 175.26 33.8049 175.495C34.1766 175.729 34.4654 176.058 34.6713 176.482C34.8797 176.906 34.9838 177.402 34.9838 177.97C34.9838 178.533 34.8797 179.026 34.6713 179.447C34.4654 179.869 34.1766 180.196 33.8049 180.431C33.4355 180.665 33.0047 180.782 32.5123 180.782ZM32.5123 180.029C32.8863 180.029 33.1941 179.934 33.4355 179.742C33.677 179.55 33.8558 179.298 33.9718 178.985C34.0878 178.673 34.1458 178.334 34.1458 177.97C34.1458 177.605 34.0878 177.266 33.9718 176.951C33.8558 176.636 33.677 176.381 33.4355 176.187C33.1941 175.993 32.8863 175.896 32.5123 175.896C32.1382 175.896 31.8304 175.993 31.589 176.187C31.3475 176.381 31.1687 176.636 31.0527 176.951C30.9367 177.266 30.8787 177.605 30.8787 177.97C30.8787 178.334 30.9367 178.673 31.0527 178.985C31.1687 179.298 31.3475 179.55 31.589 179.742C31.8304 179.934 32.1382 180.029 32.5123 180.029ZM36.2631 180.669V175.214H37.0728V176.066H37.1438C37.2575 175.775 37.4409 175.549 37.6942 175.388C37.9476 175.225 38.2518 175.143 38.6069 175.143C38.9667 175.143 39.2662 175.225 39.5053 175.388C39.7468 175.549 39.935 175.775 40.07 176.066H40.1268C40.2665 175.785 40.476 175.561 40.7553 175.395C41.0347 175.227 41.3697 175.143 41.7603 175.143C42.248 175.143 42.6469 175.296 42.957 175.601C43.2672 175.904 43.4222 176.377 43.4222 177.018V180.669H42.5842V177.018C42.5842 176.616 42.4741 176.328 42.2539 176.155C42.0337 175.982 41.7745 175.896 41.4762 175.896C41.0927 175.896 40.7956 176.012 40.5849 176.244C40.3742 176.474 40.2688 176.765 40.2688 177.118V180.669H39.4165V176.933C39.4165 176.623 39.3159 176.373 39.1147 176.184C38.9135 175.992 38.6542 175.896 38.337 175.896C38.1192 175.896 37.9156 175.954 37.7262 176.07C37.5392 176.186 37.3877 176.347 37.2717 176.553C37.158 176.757 37.1012 176.992 37.1012 177.26V180.669H36.2631ZM47.2415 180.782C46.7159 180.782 46.2625 180.666 45.8814 180.434C45.5026 180.2 45.2102 179.873 45.0043 179.454C44.8007 179.033 44.6989 178.543 44.6989 177.984C44.6989 177.425 44.8007 176.933 45.0043 176.507C45.2102 176.078 45.4967 175.744 45.8636 175.505C46.233 175.264 46.6638 175.143 47.1562 175.143C47.4403 175.143 47.7209 175.19 47.9979 175.285C48.2749 175.38 48.527 175.534 48.7543 175.747C48.9815 175.958 49.1626 176.237 49.2976 176.585C49.4325 176.933 49.5 177.361 49.5 177.87V178.226H45.2955V177.501H48.6477C48.6477 177.193 48.5862 176.919 48.4631 176.677C48.3423 176.436 48.1695 176.245 47.9446 176.105C47.7221 175.966 47.4593 175.896 47.1562 175.896C46.8224 175.896 46.5336 175.979 46.2898 176.145C46.0483 176.308 45.8625 176.521 45.7322 176.784C45.602 177.047 45.5369 177.328 45.5369 177.629V178.112C45.5369 178.524 45.608 178.873 45.75 179.159C45.8944 179.444 46.0945 179.66 46.3501 179.809C46.6058 179.956 46.9029 180.029 47.2415 180.029C47.4616 180.029 47.6605 179.999 47.8381 179.937C48.018 179.873 48.1731 179.779 48.3033 179.653C48.4335 179.525 48.5341 179.367 48.6051 179.177L49.4148 179.404C49.3295 179.679 49.1863 179.921 48.9851 180.129C48.7839 180.335 48.5353 180.496 48.2393 180.612C47.9434 180.726 47.6108 180.782 47.2415 180.782ZM55.647 180.782C55.1925 180.782 54.7912 180.668 54.4432 180.438C54.0952 180.206 53.8229 179.879 53.6264 179.458C53.4299 179.034 53.3317 178.533 53.3317 177.956C53.3317 177.383 53.4299 176.886 53.6264 176.464C53.8229 176.043 54.0964 175.717 54.4467 175.488C54.7971 175.258 55.2019 175.143 55.6612 175.143C56.0163 175.143 56.2969 175.202 56.5028 175.321C56.7112 175.437 56.8698 175.569 56.9787 175.718C57.09 175.865 57.1764 175.986 57.2379 176.081H57.3089V173.396H58.147V180.669H57.3374V179.831H57.2379C57.1764 179.93 57.0888 180.056 56.9751 180.207C56.8615 180.356 56.6993 180.49 56.4886 180.608C56.2779 180.724 55.9974 180.782 55.647 180.782ZM55.7607 180.029C56.0968 180.029 56.3809 179.942 56.6129 179.767C56.8449 179.589 57.0213 179.344 57.142 179.032C57.2628 178.717 57.3232 178.353 57.3232 177.941C57.3232 177.534 57.264 177.178 57.1456 176.873C57.0272 176.565 56.852 176.326 56.62 176.155C56.388 175.982 56.1016 175.896 55.7607 175.896C55.4055 175.896 55.1096 175.987 54.8729 176.169C54.6385 176.349 54.4621 176.594 54.3438 176.904C54.2277 177.212 54.1697 177.558 54.1697 177.941C54.1697 178.33 54.2289 178.682 54.3473 179C54.468 179.315 54.6456 179.565 54.88 179.753C55.1167 179.937 55.4103 180.029 55.7607 180.029ZM62.0142 180.782C61.5218 180.782 61.0897 180.665 60.718 180.431C60.3487 180.196 60.0599 179.869 59.8516 179.447C59.6456 179.026 59.5426 178.533 59.5426 177.97C59.5426 177.402 59.6456 176.906 59.8516 176.482C60.0599 176.058 60.3487 175.729 60.718 175.495C61.0897 175.26 61.5218 175.143 62.0142 175.143C62.5066 175.143 62.9375 175.26 63.3068 175.495C63.6785 175.729 63.9673 176.058 64.1733 176.482C64.3816 176.906 64.4858 177.402 64.4858 177.97C64.4858 178.533 64.3816 179.026 64.1733 179.447C63.9673 179.869 63.6785 180.196 63.3068 180.431C62.9375 180.665 62.5066 180.782 62.0142 180.782ZM62.0142 180.029C62.3883 180.029 62.696 179.934 62.9375 179.742C63.179 179.55 63.3577 179.298 63.4737 178.985C63.5897 178.673 63.6477 178.334 63.6477 177.97C63.6477 177.605 63.5897 177.266 63.4737 176.951C63.3577 176.636 63.179 176.381 62.9375 176.187C62.696 175.993 62.3883 175.896 62.0142 175.896C61.6402 175.896 61.3324 175.993 61.0909 176.187C60.8494 176.381 60.6707 176.636 60.5547 176.951C60.4387 177.266 60.3807 177.605 60.3807 177.97C60.3807 178.334 60.4387 178.673 60.5547 178.985C60.6707 179.298 60.8494 179.55 61.0909 179.742C61.3324 179.934 61.6402 180.029 62.0142 180.029ZM70.9498 175.214V175.924H68.123V175.214H70.9498ZM68.9469 173.907H69.785V179.106C69.785 179.343 69.8193 179.521 69.888 179.639C69.959 179.755 70.0489 179.833 70.1578 179.873C70.2691 179.911 70.3863 179.93 70.5094 179.93C70.6017 179.93 70.6775 179.925 70.7367 179.916C70.7959 179.904 70.8432 179.895 70.8787 179.887L71.0492 180.64C70.9924 180.662 70.9131 180.683 70.8113 180.704C70.7095 180.728 70.5804 180.74 70.4242 180.74C70.1874 180.74 69.9554 180.689 69.7282 180.587C69.5033 180.485 69.3162 180.33 69.1671 180.122C69.0203 179.913 68.9469 179.651 68.9469 179.333V173.907ZM72.2104 180.669V175.214H73.0485V180.669H72.2104ZM72.6365 174.305C72.4732 174.305 72.3323 174.249 72.214 174.138C72.098 174.027 72.04 173.893 72.04 173.737C72.04 173.581 72.098 173.447 72.214 173.336C72.3323 173.224 72.4732 173.169 72.6365 173.169C72.7999 173.169 72.9396 173.224 73.0556 173.336C73.1739 173.447 73.2331 173.581 73.2331 173.737C73.2331 173.893 73.1739 174.027 73.0556 174.138C72.9396 174.249 72.7999 174.305 72.6365 174.305ZM76.9556 175.214V175.924H74.1289V175.214H76.9556ZM74.9528 173.907H75.7908V179.106C75.7908 179.343 75.8252 179.521 75.8938 179.639C75.9648 179.755 76.0548 179.833 76.1637 179.873C76.275 179.911 76.3922 179.93 76.5153 179.93C76.6076 179.93 76.6834 179.925 76.7425 179.916C76.8017 179.904 76.8491 179.895 76.8846 179.887L77.055 180.64C76.9982 180.662 76.9189 180.683 76.8171 180.704C76.7153 180.728 76.5863 180.74 76.43 180.74C76.1933 180.74 75.9613 180.689 75.734 180.587C75.5091 180.485 75.3221 180.33 75.1729 180.122C75.0262 179.913 74.9528 179.651 74.9528 179.333V173.907ZM81.6538 178.439V175.214H82.4918V180.669H81.6538V179.745H81.5969C81.4691 180.022 81.2702 180.258 81.0004 180.452C80.7305 180.644 80.3896 180.74 79.9776 180.74C79.6367 180.74 79.3337 180.665 79.0685 180.516C78.8034 180.364 78.5951 180.137 78.4435 179.834C78.292 179.529 78.2163 179.144 78.2163 178.68V175.214H79.0543V178.623C79.0543 179.021 79.1656 179.338 79.3881 179.575C79.613 179.812 79.8995 179.93 80.2475 179.93C80.4558 179.93 80.6677 179.877 80.8832 179.77C81.101 179.664 81.2833 179.5 81.43 179.28C81.5792 179.06 81.6538 178.779 81.6538 178.439ZM84.8649 173.396V180.669H84.0268V173.396H84.8649ZM88.005 180.797C87.6593 180.797 87.3456 180.731 87.0639 180.601C86.7822 180.469 86.5585 180.278 86.3928 180.029C86.227 179.779 86.1442 179.476 86.1442 179.12C86.1442 178.808 86.2057 178.555 86.3288 178.36C86.4519 178.164 86.6165 178.01 86.8224 177.899C87.0284 177.788 87.2557 177.705 87.5043 177.65C87.7552 177.593 88.0073 177.548 88.2607 177.515C88.5921 177.473 88.8608 177.441 89.0668 177.419C89.2751 177.396 89.4266 177.357 89.5213 177.302C89.6184 177.248 89.6669 177.153 89.6669 177.018V176.99C89.6669 176.639 89.571 176.367 89.3793 176.173C89.1899 175.979 88.9022 175.882 88.5163 175.882C88.1162 175.882 87.8026 175.969 87.5753 176.145C87.348 176.32 87.1882 176.507 87.0959 176.706L86.3004 176.422C86.4425 176.09 86.6319 175.832 86.8686 175.647C87.1077 175.46 87.3681 175.33 87.6499 175.257C87.9339 175.181 88.2133 175.143 88.4879 175.143C88.6631 175.143 88.8643 175.164 89.0916 175.207C89.3213 175.247 89.5426 175.331 89.7557 175.459C89.9711 175.587 90.1499 175.78 90.2919 176.038C90.4339 176.296 90.505 176.642 90.505 177.075V180.669H89.6669V179.93H89.6243C89.5675 180.048 89.4728 180.175 89.3402 180.31C89.2076 180.445 89.0313 180.56 88.8111 180.654C88.5909 180.749 88.3222 180.797 88.005 180.797ZM88.1328 180.044C88.4643 180.044 88.7436 179.979 88.9709 179.848C89.2005 179.718 89.3733 179.55 89.4893 179.344C89.6077 179.138 89.6669 178.922 89.6669 178.694V177.927C89.6314 177.97 89.5533 178.009 89.4325 178.044C89.3142 178.078 89.1768 178.107 89.0206 178.133C88.8667 178.157 88.7164 178.178 88.5696 178.197C88.4252 178.214 88.308 178.228 88.218 178.24C88.0002 178.268 87.7966 178.314 87.6072 178.378C87.4202 178.44 87.2687 178.533 87.1527 178.659C87.0391 178.782 86.9822 178.95 86.9822 179.163C86.9822 179.454 87.09 179.674 87.3054 179.824C87.5232 179.97 87.799 180.044 88.1328 180.044ZM92.0346 180.669V175.214H92.8443V176.038H92.9011C93.0005 175.768 93.1805 175.549 93.4409 175.381C93.7013 175.213 93.9949 175.129 94.3216 175.129C94.3831 175.129 94.46 175.13 94.5524 175.132C94.6447 175.135 94.7145 175.138 94.7619 175.143V175.995C94.7335 175.988 94.6684 175.978 94.5666 175.963C94.4672 175.947 94.3618 175.939 94.2505 175.939C93.9854 175.939 93.7486 175.994 93.5403 176.105C93.3343 176.214 93.171 176.366 93.0502 176.56C92.9319 176.752 92.8727 176.971 92.8727 177.217V180.669H92.0346Z" fill="white"/>
<g filter="url(#filter4_di_1905_266)">
<path d="M22.8849 190.487H25.5398L28.3438 197.328H28.4631L31.267 190.487H33.9219V200.669H31.8338V194.042H31.7493L29.1143 200.619H27.6925L25.0575 194.017H24.973V200.669H22.8849V190.487ZM37.4505 200.669H35.1436L38.6586 190.487H41.4327L44.9426 200.669H42.6358L40.0854 192.814H40.0059L37.4505 200.669ZM37.3063 196.667H42.7551V198.347H37.3063V196.667ZM44.5325 190.487H46.9437L49.2654 194.872H49.3649L51.6866 190.487H54.0978L50.3841 197.069V200.669H48.2463V197.069L44.5325 190.487ZM55.2736 200.669V190.487H57.4263V194.976H57.5605L61.2246 190.487H63.8049L60.0265 195.046L63.8496 200.669H61.2743L58.4853 196.483L57.4263 197.775V200.669H55.2736ZM68.1662 200.669V190.487H72.2429C72.992 190.487 73.6167 190.598 74.1172 190.82C74.6177 191.042 74.9938 191.35 75.2457 191.745C75.4976 192.136 75.6236 192.587 75.6236 193.097C75.6236 193.495 75.544 193.844 75.3849 194.146C75.2259 194.444 75.0071 194.69 74.7287 194.882C74.4536 195.071 74.1387 195.205 73.7841 195.284V195.384C74.1719 195.4 74.5348 195.51 74.8729 195.712C75.2143 195.914 75.491 196.198 75.7031 196.562C75.9152 196.923 76.0213 197.354 76.0213 197.855C76.0213 198.395 75.8871 198.877 75.6186 199.302C75.3535 199.722 74.9607 200.056 74.4403 200.301C73.92 200.546 73.2786 200.669 72.5163 200.669H68.1662ZM70.3189 198.909H72.0739C72.6738 198.909 73.1113 198.794 73.3864 198.566C73.6615 198.334 73.799 198.025 73.799 197.641C73.799 197.359 73.7311 197.111 73.5952 196.895C73.4593 196.68 73.2654 196.511 73.0135 196.388C72.7649 196.266 72.4683 196.204 72.1236 196.204H70.3189V198.909ZM70.3189 194.748H71.9148C72.2098 194.748 72.4716 194.696 72.7003 194.593C72.9323 194.487 73.1146 194.338 73.2472 194.146C73.383 193.954 73.451 193.723 73.451 193.455C73.451 193.087 73.3201 192.79 73.0582 192.565C72.7997 192.34 72.4318 192.227 71.9545 192.227H70.3189V194.748ZM77.4221 200.669V190.487H81.4391C82.208 190.487 82.8643 190.624 83.4078 190.9C83.9547 191.171 84.3707 191.557 84.6557 192.058C84.9441 192.555 85.0882 193.14 85.0882 193.813C85.0882 194.489 84.9424 195.071 84.6507 195.558C84.3591 196.042 83.9365 196.413 83.383 196.672C82.8328 196.93 82.1666 197.059 81.3844 197.059H78.6948V195.329H81.0364C81.4474 195.329 81.7888 195.273 82.0605 195.16C82.3323 195.047 82.5345 194.878 82.6671 194.653C82.803 194.428 82.8709 194.148 82.8709 193.813C82.8709 193.475 82.803 193.19 82.6671 192.958C82.5345 192.726 82.3307 192.55 82.0556 192.431C81.7838 192.308 81.4408 192.247 81.0265 192.247H79.5748V200.669H77.4221ZM82.9206 196.035L85.4512 200.669H83.0748L80.5989 196.035H82.9206ZM88.7623 190.487V200.669H86.6096V190.487H88.7623ZM90.1456 192.262V190.487H98.5078V192.262H95.3906V200.669H93.2628V192.262H90.1456ZM108.777 195.578C108.777 196.688 108.566 197.633 108.145 198.412C107.728 199.19 107.158 199.785 106.435 200.196C105.716 200.604 104.907 200.808 104.009 200.808C103.104 200.808 102.292 200.602 101.573 200.191C100.854 199.78 100.285 199.186 99.8675 198.407C99.4499 197.628 99.2411 196.685 99.2411 195.578C99.2411 194.467 99.4499 193.523 99.8675 192.744C100.285 191.965 100.854 191.372 101.573 190.964C102.292 190.553 103.104 190.348 104.009 190.348C104.907 190.348 105.716 190.553 106.435 190.964C107.158 191.372 107.728 191.965 108.145 192.744C108.566 193.523 108.777 194.467 108.777 195.578ZM106.594 195.578C106.594 194.859 106.486 194.252 106.271 193.758C106.059 193.264 105.759 192.89 105.371 192.635C104.983 192.379 104.529 192.252 104.009 192.252C103.489 192.252 103.034 192.379 102.647 192.635C102.259 192.89 101.957 193.264 101.742 193.758C101.53 194.252 101.424 194.859 101.424 195.578C101.424 196.297 101.53 196.904 101.742 197.397C101.957 197.891 102.259 198.266 102.647 198.521C103.034 198.776 103.489 198.904 104.009 198.904C104.529 198.904 104.983 198.776 105.371 198.521C105.759 198.266 106.059 197.891 106.271 197.397C106.486 196.904 106.594 196.297 106.594 195.578Z" fill="white"/>
</g>
<path d="M22.8807 227.669V220.396H27.2699V221.177H23.7614V223.635H27.0426V224.416H23.7614V226.887H27.3267V227.669H22.8807ZM29.3686 222.214L30.6754 224.444L31.9822 222.214H32.9482L31.1868 224.941L32.9482 227.669H31.9822L30.6754 225.552L29.3686 227.669H28.4027L30.1357 224.941L28.4027 222.214H29.3686ZM34.144 229.714V222.214H34.9537V223.081H35.0531C35.1146 222.986 35.1999 222.865 35.3088 222.718C35.42 222.569 35.5787 222.437 35.7846 222.321C35.993 222.202 36.2747 222.143 36.6298 222.143C37.0891 222.143 37.4939 222.258 37.8443 222.488C38.1947 222.717 38.4681 223.043 38.6646 223.464C38.8611 223.886 38.9593 224.383 38.9593 224.956C38.9593 225.533 38.8611 226.034 38.6646 226.458C38.4681 226.879 38.1958 227.206 37.8478 227.438C37.4998 227.668 37.0985 227.782 36.644 227.782C36.2936 227.782 36.0131 227.724 35.8024 227.608C35.5917 227.49 35.4295 227.356 35.3159 227.207C35.2022 227.056 35.1146 226.93 35.0531 226.831H34.9821V229.714H34.144ZM34.9679 224.941C34.9679 225.353 35.0282 225.717 35.149 226.032C35.2697 226.344 35.4461 226.589 35.6781 226.767C35.9101 226.942 36.1942 227.029 36.5304 227.029C36.8807 227.029 37.1731 226.937 37.4075 226.753C37.6442 226.565 37.8218 226.315 37.9402 226C38.0609 225.682 38.1213 225.33 38.1213 224.941C38.1213 224.558 38.0621 224.212 37.9437 223.904C37.8277 223.594 37.6513 223.349 37.4146 223.169C37.1802 222.987 36.8855 222.896 36.5304 222.896C36.1895 222.896 35.903 222.982 35.671 223.155C35.439 223.326 35.2638 223.565 35.1454 223.873C35.027 224.178 34.9679 224.534 34.9679 224.941ZM40.2377 227.669V222.214H41.0758V227.669H40.2377ZM40.6639 221.305C40.5005 221.305 40.3597 221.249 40.2413 221.138C40.1253 221.027 40.0673 220.893 40.0673 220.737C40.0673 220.581 40.1253 220.447 40.2413 220.336C40.3597 220.224 40.5005 220.169 40.6639 220.169C40.8272 220.169 40.9669 220.224 41.0829 220.336C41.2013 220.447 41.2605 220.581 41.2605 220.737C41.2605 220.893 41.2013 221.027 41.0829 221.138C40.9669 221.249 40.8272 221.305 40.6639 221.305ZM42.6108 227.669V222.214H43.4205V223.038H43.4773C43.5767 222.768 43.7566 222.549 44.017 222.381C44.2775 222.213 44.571 222.129 44.8977 222.129C44.9593 222.129 45.0362 222.13 45.1286 222.132C45.2209 222.135 45.2907 222.138 45.3381 222.143V222.995C45.3097 222.988 45.2446 222.978 45.1428 222.963C45.0433 222.947 44.938 222.939 44.8267 222.939C44.5616 222.939 44.3248 222.994 44.1165 223.105C43.9105 223.214 43.7472 223.366 43.6264 223.56C43.508 223.752 43.4489 223.971 43.4489 224.217V227.669H42.6108ZM47.9366 227.797C47.591 227.797 47.2773 227.731 46.9956 227.601C46.7138 227.469 46.4901 227.278 46.3244 227.029C46.1587 226.779 46.0758 226.476 46.0758 226.12C46.0758 225.808 46.1374 225.555 46.2605 225.36C46.3836 225.164 46.5481 225.01 46.7541 224.899C46.96 224.788 47.1873 224.705 47.4359 224.65C47.6868 224.593 47.939 224.548 48.1923 224.515C48.5237 224.473 48.7924 224.441 48.9984 224.419C49.2067 224.396 49.3583 224.357 49.4529 224.302C49.55 224.248 49.5985 224.153 49.5985 224.018V223.99C49.5985 223.639 49.5027 223.367 49.3109 223.173C49.1215 222.979 48.8339 222.882 48.448 222.882C48.0479 222.882 47.7342 222.969 47.5069 223.145C47.2797 223.32 47.1199 223.507 47.0275 223.706L46.2321 223.422C46.3741 223.09 46.5635 222.832 46.8002 222.647C47.0394 222.46 47.2998 222.33 47.5815 222.257C47.8656 222.181 48.1449 222.143 48.4196 222.143C48.5948 222.143 48.796 222.164 49.0233 222.207C49.2529 222.247 49.4743 222.331 49.6873 222.459C49.9028 222.587 50.0815 222.78 50.2235 223.038C50.3656 223.296 50.4366 223.642 50.4366 224.075V227.669H49.5985V226.93H49.5559C49.4991 227.048 49.4044 227.175 49.2718 227.31C49.1393 227.445 48.9629 227.56 48.7427 227.654C48.5225 227.749 48.2538 227.797 47.9366 227.797ZM48.0645 227.044C48.3959 227.044 48.6752 226.979 48.9025 226.848C49.1322 226.718 49.305 226.55 49.421 226.344C49.5394 226.138 49.5985 225.922 49.5985 225.694V224.927C49.563 224.97 49.4849 225.009 49.3642 225.044C49.2458 225.078 49.1085 225.107 48.9522 225.133C48.7984 225.157 48.648 225.178 48.5012 225.197C48.3568 225.214 48.2396 225.228 48.1497 225.24C47.9319 225.268 47.7283 225.314 47.5389 225.378C47.3519 225.44 47.2003 225.533 47.0843 225.659C46.9707 225.782 46.9139 225.95 46.9139 226.163C46.9139 226.454 47.0216 226.674 47.237 226.824C47.4548 226.97 47.7306 227.044 48.0645 227.044ZM54.1822 227.782C53.6708 227.782 53.2305 227.662 52.8612 227.42C52.4918 227.179 52.2077 226.846 52.0089 226.422C51.81 225.998 51.7106 225.514 51.7106 224.97C51.7106 224.416 51.8124 223.927 52.016 223.503C52.2219 223.077 52.5084 222.744 52.8754 222.505C53.2447 222.264 53.6755 222.143 54.168 222.143C54.5515 222.143 54.8971 222.214 55.2049 222.356C55.5127 222.498 55.7648 222.697 55.9613 222.953C56.1578 223.208 56.2797 223.507 56.3271 223.848H55.489C55.4251 223.599 55.283 223.379 55.0629 223.187C54.8451 222.993 54.5515 222.896 54.1822 222.896C53.8555 222.896 53.569 222.981 53.3228 223.152C53.079 223.32 52.8884 223.558 52.7511 223.865C52.6161 224.171 52.5487 224.529 52.5487 224.941C52.5487 225.363 52.6149 225.73 52.7475 226.042C52.8825 226.355 53.0719 226.597 53.3157 226.77C53.5619 226.943 53.8507 227.029 54.1822 227.029C54.4 227.029 54.5977 226.992 54.7752 226.916C54.9528 226.84 55.1031 226.731 55.2262 226.589C55.3493 226.447 55.4369 226.277 55.489 226.078H56.3271C56.2797 226.4 56.1625 226.69 55.9755 226.948C55.7908 227.204 55.5458 227.407 55.2404 227.559C54.9374 227.708 54.5846 227.782 54.1822 227.782ZM53.7844 227.64H54.4805L54.4237 227.924C54.6083 227.953 54.7776 228.03 54.9315 228.155C55.0853 228.283 55.1623 228.485 55.1623 228.762C55.1623 229.068 55.0356 229.316 54.7823 229.508C54.5314 229.702 54.1609 229.799 53.6708 229.799L53.6424 229.245C53.8626 229.245 54.0449 229.21 54.1893 229.139C54.3361 229.07 54.4094 228.954 54.4094 228.791C54.4094 228.628 54.3491 228.516 54.2283 228.457C54.1076 228.398 53.9123 228.358 53.6424 228.336L53.7844 227.64ZM59.1573 227.797C58.8117 227.797 58.498 227.731 58.2163 227.601C57.9345 227.469 57.7108 227.278 57.5451 227.029C57.3794 226.779 57.2965 226.476 57.2965 226.12C57.2965 225.808 57.3581 225.555 57.4812 225.36C57.6043 225.164 57.7688 225.01 57.9748 224.899C58.1808 224.788 58.408 224.705 58.6566 224.65C58.9076 224.593 59.1597 224.548 59.413 224.515C59.7444 224.473 60.0131 224.441 60.2191 224.419C60.4274 224.396 60.579 224.357 60.6737 224.302C60.7707 224.248 60.8192 224.153 60.8192 224.018V223.99C60.8192 223.639 60.7234 223.367 60.5316 223.173C60.3422 222.979 60.0546 222.882 59.6687 222.882C59.2686 222.882 58.9549 222.969 58.7276 223.145C58.5004 223.32 58.3406 223.507 58.2482 223.706L57.4528 223.422C57.5948 223.09 57.7842 222.832 58.021 222.647C58.2601 222.46 58.5205 222.33 58.8022 222.257C59.0863 222.181 59.3656 222.143 59.6403 222.143C59.8155 222.143 60.0167 222.164 60.244 222.207C60.4736 222.247 60.695 222.331 60.908 222.459C61.1235 222.587 61.3022 222.78 61.4442 223.038C61.5863 223.296 61.6573 223.642 61.6573 224.075V227.669H60.8192V226.93H60.7766C60.7198 227.048 60.6251 227.175 60.4925 227.31C60.36 227.445 60.1836 227.56 59.9634 227.654C59.7433 227.749 59.4746 227.797 59.1573 227.797ZM59.2852 227.044C59.6166 227.044 59.896 226.979 60.1232 226.848C60.3529 226.718 60.5257 226.55 60.6417 226.344C60.7601 226.138 60.8192 225.922 60.8192 225.694V224.927C60.7837 224.97 60.7056 225.009 60.5849 225.044C60.4665 225.078 60.3292 225.107 60.1729 225.133C60.0191 225.157 59.8687 225.178 59.7219 225.197C59.5775 225.214 59.4603 225.228 59.3704 225.24C59.1526 225.268 58.949 225.314 58.7596 225.378C58.5726 225.44 58.421 225.533 58.305 225.659C58.1914 225.782 58.1346 225.95 58.1346 226.163C58.1346 226.454 58.2423 226.674 58.4577 226.824C58.6755 226.97 58.9513 227.044 59.2852 227.044ZM58.6033 221.561L57.9499 221.532C57.9499 221.17 58.0529 220.874 58.2589 220.645C58.4672 220.413 58.7241 220.297 59.0295 220.297C59.1644 220.297 59.284 220.32 59.3881 220.368C59.4923 220.413 59.5917 220.465 59.6864 220.524C59.7811 220.583 59.8782 220.636 59.9776 220.684C60.0794 220.729 60.1942 220.751 60.3221 220.751C60.457 220.751 60.5707 220.699 60.663 220.595C60.7577 220.488 60.805 220.36 60.805 220.211L61.4442 220.268C61.4442 220.637 61.3401 220.931 61.1317 221.149C60.9258 221.367 60.6701 221.476 60.3647 221.476C60.2013 221.476 60.0664 221.453 59.9599 221.408C59.8533 221.361 59.7586 221.307 59.6758 221.248C59.5929 221.189 59.5053 221.137 59.413 221.092C59.3207 221.045 59.207 221.021 59.0721 221.021C58.9371 221.021 58.8247 221.074 58.7347 221.181C58.6471 221.285 58.6033 221.412 58.6033 221.561ZM65.4029 227.782C64.9105 227.782 64.4784 227.665 64.1067 227.431C63.7374 227.196 63.4486 226.869 63.2402 226.447C63.0343 226.026 62.9313 225.533 62.9313 224.97C62.9313 224.402 63.0343 223.906 63.2402 223.482C63.4486 223.058 63.7374 222.729 64.1067 222.495C64.4784 222.26 64.9105 222.143 65.4029 222.143C65.8953 222.143 66.3262 222.26 66.6955 222.495C67.0672 222.729 67.356 223.058 67.562 223.482C67.7703 223.906 67.8745 224.402 67.8745 224.97C67.8745 225.533 67.7703 226.026 67.562 226.447C67.356 226.869 67.0672 227.196 66.6955 227.431C66.3262 227.665 65.8953 227.782 65.4029 227.782ZM65.4029 227.029C65.7769 227.029 66.0847 226.934 66.3262 226.742C66.5676 226.55 66.7464 226.298 66.8624 225.985C66.9784 225.673 67.0364 225.334 67.0364 224.97C67.0364 224.605 66.9784 224.266 66.8624 223.951C66.7464 223.636 66.5676 223.381 66.3262 223.187C66.0847 222.993 65.7769 222.896 65.4029 222.896C65.0288 222.896 64.7211 222.993 64.4796 223.187C64.2381 223.381 64.0594 223.636 63.9434 223.951C63.8274 224.266 63.7694 224.605 63.7694 224.97C63.7694 225.334 63.8274 225.673 63.9434 225.985C64.0594 226.298 64.2381 226.55 64.4796 226.742C64.7211 226.934 65.0288 227.029 65.4029 227.029Z" fill="white"/>
<g filter="url(#filter5_di_1905_266)">
<path d="M26.8175 247.892C25.9624 247.889 25.2266 247.679 24.6101 247.261C23.9969 246.843 23.5246 246.239 23.1932 245.446C22.8651 244.654 22.7027 243.701 22.706 242.588C22.706 241.477 22.87 240.531 23.1982 239.749C23.5296 238.967 24.0019 238.372 24.6151 237.964C25.2315 237.553 25.9657 237.348 26.8175 237.348C27.6693 237.348 28.4018 237.553 29.0149 237.964C29.6314 238.375 30.1054 238.972 30.4368 239.754C30.7682 240.533 30.9323 241.477 30.929 242.588C30.929 243.705 30.7633 244.659 30.4318 245.451C30.1037 246.244 29.633 246.848 29.0199 247.266C28.4067 247.684 27.6726 247.892 26.8175 247.892ZM26.8175 246.108C27.4008 246.108 27.8665 245.814 28.2145 245.228C28.5625 244.641 28.7348 243.761 28.7315 242.588C28.7315 241.815 28.652 241.172 28.4929 240.659C28.3371 240.145 28.1151 239.759 27.8267 239.5C27.5417 239.242 27.2053 239.113 26.8175 239.113C26.2375 239.113 25.7734 239.403 25.4254 239.983C25.0774 240.563 24.9018 241.431 24.8984 242.588C24.8984 243.37 24.9763 244.023 25.1321 244.547C25.2912 245.067 25.5149 245.458 25.8033 245.72C26.0916 245.978 26.4297 246.108 26.8175 246.108ZM32.464 247.669V246.118L36.0882 242.762C36.3965 242.463 36.655 242.195 36.8638 241.956C37.0759 241.718 37.2367 241.484 37.3461 241.255C37.4554 241.023 37.5101 240.773 37.5101 240.505C37.5101 240.206 37.4422 239.949 37.3063 239.734C37.1704 239.515 36.9848 239.348 36.7495 239.232C36.5141 239.113 36.2473 239.053 35.949 239.053C35.6375 239.053 35.3657 239.116 35.1337 239.242C34.9017 239.368 34.7227 239.548 34.5968 239.784C34.4708 240.019 34.4078 240.299 34.4078 240.624H32.3645C32.3645 239.958 32.5153 239.379 32.8169 238.889C33.1185 238.398 33.5411 238.019 34.0847 237.75C34.6283 237.482 35.2547 237.348 35.964 237.348C36.6931 237.348 37.3278 237.477 37.8681 237.735C38.4116 237.991 38.8342 238.345 39.1358 238.799C39.4374 239.253 39.5882 239.774 39.5882 240.36C39.5882 240.745 39.512 241.124 39.3596 241.499C39.2104 241.873 38.9436 242.289 38.5591 242.747C38.1747 243.201 37.6328 243.746 36.9334 244.382L35.4469 245.839V245.909H39.7225V247.669H32.464ZM45.7369 237.01L42.4556 249.2H40.631L43.9123 237.01H45.7369ZM50.5009 247.808C49.7585 247.808 49.0972 247.68 48.5172 247.425C47.9405 247.167 47.4848 246.812 47.15 246.361C46.8186 245.907 46.6479 245.383 46.638 244.79H48.8056C48.8188 245.039 48.9 245.257 49.0492 245.446C49.2016 245.632 49.4038 245.776 49.6557 245.879C49.9076 245.982 50.191 246.033 50.5059 246.033C50.834 246.033 51.124 245.975 51.3759 245.859C51.6278 245.743 51.825 245.582 51.9675 245.377C52.11 245.171 52.1813 244.934 52.1813 244.666C52.1813 244.394 52.1051 244.154 51.9526 243.945C51.8034 243.733 51.588 243.567 51.3063 243.448C51.0279 243.329 50.6964 243.269 50.312 243.269H49.3624V241.688H50.312C50.6368 241.688 50.9235 241.632 51.1721 241.519C51.4239 241.406 51.6195 241.25 51.7587 241.052C51.8979 240.849 51.9675 240.614 51.9675 240.346C51.9675 240.09 51.9062 239.867 51.7836 239.674C51.6642 239.479 51.4952 239.326 51.2765 239.217C51.061 239.108 50.8091 239.053 50.5208 239.053C50.2291 239.053 49.9623 239.106 49.7203 239.212C49.4784 239.315 49.2845 239.462 49.1387 239.654C48.9928 239.847 48.915 240.072 48.905 240.331H46.8418C46.8517 239.744 47.0191 239.227 47.3439 238.779C47.6687 238.332 48.1062 237.982 48.6564 237.73C49.2099 237.475 49.8347 237.348 50.5307 237.348C51.2334 237.348 51.8482 237.475 52.3752 237.73C52.9022 237.986 53.3115 238.33 53.6032 238.765C53.8981 239.195 54.044 239.679 54.0407 240.216C54.044 240.786 53.8667 241.262 53.5087 241.643C53.1541 242.024 52.6917 242.266 52.1216 242.369V242.449C52.8707 242.545 53.4408 242.805 53.8319 243.229C54.2263 243.65 54.4218 244.177 54.4185 244.81C54.4218 245.39 54.2544 245.905 53.9164 246.356C53.5816 246.807 53.1193 247.162 52.5293 247.42C51.9393 247.679 51.2632 247.808 50.5009 247.808ZM59.9581 247.892C59.103 247.889 58.3672 247.679 57.7507 247.261C57.1375 246.843 56.6652 246.239 56.3338 245.446C56.0057 244.654 55.8433 243.701 55.8466 242.588C55.8466 241.477 56.0107 240.531 56.3388 239.749C56.6702 238.967 57.1425 238.372 57.7557 237.964C58.3722 237.553 59.1063 237.348 59.9581 237.348C60.8099 237.348 61.5424 237.553 62.1555 237.964C62.772 238.375 63.246 238.972 63.5774 239.754C63.9089 240.533 64.0729 241.477 64.0696 242.588C64.0696 243.705 63.9039 244.659 63.5724 245.451C63.2443 246.244 62.7737 246.848 62.1605 247.266C61.5473 247.684 60.8132 247.892 59.9581 247.892ZM59.9581 246.108C60.5414 246.108 61.0071 245.814 61.3551 245.228C61.7031 244.641 61.8755 243.761 61.8722 242.588C61.8722 241.815 61.7926 241.172 61.6335 240.659C61.4777 240.145 61.2557 239.759 60.9673 239.5C60.6823 239.242 60.3459 239.113 59.9581 239.113C59.3781 239.113 58.9141 239.403 58.5661 239.983C58.218 240.563 58.0424 241.431 58.0391 242.588C58.0391 243.37 58.117 244.023 58.2727 244.547C58.4318 245.067 58.6555 245.458 58.9439 245.72C59.2322 245.978 59.5703 246.108 59.9581 246.108Z" fill="white"/>
</g>
<path d="M179.623 222.669H178.743C178.691 222.415 178.599 222.193 178.469 222.001C178.341 221.809 178.185 221.648 178 221.518C177.818 221.386 177.616 221.286 177.393 221.22C177.171 221.154 176.939 221.12 176.697 221.12C176.257 221.12 175.858 221.232 175.5 221.454C175.145 221.677 174.862 222.005 174.652 222.438C174.443 222.871 174.339 223.403 174.339 224.032C174.339 224.662 174.443 225.194 174.652 225.627C174.862 226.06 175.145 226.388 175.5 226.61C175.858 226.833 176.257 226.944 176.697 226.944C176.939 226.944 177.171 226.911 177.393 226.845C177.616 226.779 177.818 226.68 178 226.55C178.185 226.418 178.341 226.255 178.469 226.064C178.599 225.869 178.691 225.647 178.743 225.396H179.623C179.557 225.768 179.436 226.1 179.261 226.394C179.086 226.687 178.868 226.937 178.608 227.143C178.347 227.347 178.055 227.502 177.731 227.608C177.409 227.715 177.064 227.768 176.697 227.768C176.077 227.768 175.525 227.617 175.042 227.314C174.559 227.011 174.179 226.58 173.902 226.021C173.625 225.462 173.487 224.799 173.487 224.032C173.487 223.265 173.625 222.602 173.902 222.044C174.179 221.485 174.559 221.054 175.042 220.751C175.525 220.448 176.077 220.297 176.697 220.297C177.064 220.297 177.409 220.35 177.731 220.456C178.055 220.563 178.347 220.719 178.608 220.925C178.868 221.129 179.086 221.377 179.261 221.671C179.436 221.962 179.557 222.295 179.623 222.669ZM181.345 220.396L183.504 226.518H183.589L185.748 220.396H186.671L184.001 227.669H183.092L180.421 220.396H181.345ZM193.315 222.669H192.434C192.382 222.415 192.291 222.193 192.161 222.001C192.033 221.809 191.877 221.648 191.692 221.518C191.51 221.386 191.307 221.286 191.085 221.22C190.862 221.154 190.63 221.12 190.389 221.12C189.948 221.12 189.549 221.232 189.192 221.454C188.837 221.677 188.554 222.005 188.343 222.438C188.135 222.871 188.031 223.403 188.031 224.032C188.031 224.662 188.135 225.194 188.343 225.627C188.554 226.06 188.837 226.388 189.192 226.61C189.549 226.833 189.948 226.944 190.389 226.944C190.63 226.944 190.862 226.911 191.085 226.845C191.307 226.779 191.51 226.68 191.692 226.55C191.877 226.418 192.033 226.255 192.161 226.064C192.291 225.869 192.382 225.647 192.434 225.396H193.315C193.248 225.768 193.128 226.1 192.953 226.394C192.777 226.687 192.56 226.937 192.299 227.143C192.039 227.347 191.746 227.502 191.422 227.608C191.1 227.715 190.756 227.768 190.389 227.768C189.768 227.768 189.217 227.617 188.734 227.314C188.251 227.011 187.871 226.58 187.594 226.021C187.317 225.462 187.178 224.799 187.178 224.032C187.178 223.265 187.317 222.602 187.594 222.044C187.871 221.485 188.251 221.054 188.734 220.751C189.217 220.448 189.768 220.297 190.389 220.297C190.756 220.297 191.1 220.35 191.422 220.456C191.746 220.563 192.039 220.719 192.299 220.925C192.56 221.129 192.777 221.377 192.953 221.671C193.128 221.962 193.248 222.295 193.315 222.669Z" fill="white"/>
<path d="M173.716 247.669V246.118L177.34 242.762C177.648 242.463 177.907 242.195 178.116 241.956C178.328 241.718 178.488 241.484 178.598 241.255C178.707 241.023 178.762 240.773 178.762 240.505C178.762 240.206 178.694 239.949 178.558 239.734C178.422 239.515 178.236 239.348 178.001 239.232C177.766 239.113 177.499 239.053 177.201 239.053C176.889 239.053 176.617 239.116 176.385 239.242C176.153 239.368 175.974 239.548 175.848 239.784C175.723 240.019 175.66 240.299 175.66 240.624H173.616C173.616 239.958 173.767 239.379 174.069 238.889C174.37 238.398 174.793 238.019 175.336 237.75C175.88 237.482 176.506 237.348 177.216 237.348C177.945 237.348 178.58 237.477 179.12 237.735C179.663 237.991 180.086 238.345 180.388 238.799C180.689 239.253 180.84 239.774 180.84 240.36C180.84 240.745 180.764 241.124 180.611 241.499C180.462 241.873 180.195 242.289 179.811 242.747C179.426 243.201 178.884 243.746 178.185 244.382L176.699 245.839V245.909H180.974V247.669H173.716ZM186.298 247.808C185.555 247.808 184.894 247.68 184.314 247.425C183.737 247.167 183.281 246.812 182.947 246.361C182.615 245.907 182.445 245.383 182.435 244.79H184.602C184.615 245.039 184.697 245.257 184.846 245.446C184.998 245.632 185.2 245.776 185.452 245.879C185.704 245.982 185.988 246.033 186.302 246.033C186.631 246.033 186.921 245.975 187.173 245.859C187.424 245.743 187.622 245.582 187.764 245.377C187.907 245.171 187.978 244.934 187.978 244.666C187.978 244.394 187.902 244.154 187.749 243.945C187.6 243.733 187.385 243.567 187.103 243.448C186.825 243.329 186.493 243.269 186.109 243.269H185.159V241.688H186.109C186.433 241.688 186.72 241.632 186.969 241.519C187.221 241.406 187.416 241.25 187.555 241.052C187.695 240.849 187.764 240.614 187.764 240.346C187.764 240.09 187.703 239.867 187.58 239.674C187.461 239.479 187.292 239.326 187.073 239.217C186.858 239.108 186.606 239.053 186.317 239.053C186.026 239.053 185.759 239.106 185.517 239.212C185.275 239.315 185.081 239.462 184.935 239.654C184.789 239.847 184.712 240.072 184.702 240.331H182.638C182.648 239.744 182.816 239.227 183.141 238.779C183.465 238.332 183.903 237.982 184.453 237.73C185.007 237.475 185.631 237.348 186.327 237.348C187.03 237.348 187.645 237.475 188.172 237.73C188.699 237.986 189.108 238.33 189.4 238.765C189.695 239.195 189.841 239.679 189.837 240.216C189.841 240.786 189.663 241.262 189.305 241.643C188.951 242.024 188.488 242.266 187.918 242.369V242.449C188.667 242.545 189.237 242.805 189.628 243.229C190.023 243.65 190.218 244.177 190.215 244.81C190.218 245.39 190.051 245.905 189.713 246.356C189.378 246.807 188.916 247.162 188.326 247.42C187.736 247.679 187.06 247.808 186.298 247.808ZM195.755 247.892C194.9 247.889 194.164 247.679 193.547 247.261C192.934 246.843 192.462 246.239 192.13 245.446C191.802 244.654 191.64 243.701 191.643 242.588C191.643 241.477 191.807 240.531 192.135 239.749C192.467 238.967 192.939 238.372 193.552 237.964C194.169 237.553 194.903 237.348 195.755 237.348C196.607 237.348 197.339 237.553 197.952 237.964C198.569 238.375 199.043 238.972 199.374 239.754C199.705 240.533 199.87 241.477 199.866 242.588C199.866 243.705 199.701 244.659 199.369 245.451C199.041 246.244 198.57 246.848 197.957 247.266C197.344 247.684 196.61 247.892 195.755 247.892ZM195.755 246.108C196.338 246.108 196.804 245.814 197.152 245.228C197.5 244.641 197.672 243.761 197.669 242.588C197.669 241.815 197.589 241.172 197.43 240.659C197.274 240.145 197.052 239.759 196.764 239.5C196.479 239.242 196.143 239.113 195.755 239.113C195.175 239.113 194.711 239.403 194.363 239.983C194.015 240.563 193.839 241.431 193.836 242.588C193.836 243.37 193.914 244.023 194.069 244.547C194.228 245.067 194.452 245.458 194.741 245.72C195.029 245.978 195.367 246.108 195.755 246.108Z" fill="white"/>
<g opacity="0.7">
<rect x="305.23" y="220.439" width="36.3209" height="27.4591" rx="4.20321" fill="white" fill-opacity="0.26" stroke="white" stroke-width="0.898396"/>
<path d="M305.362 228.713H315.248C316.533 228.713 317.575 229.755 317.575 231.039V235.546M317.575 247.788V242.38M317.575 242.38V235.546M317.575 242.38H305.362M317.575 235.546H305.362" stroke="white" stroke-width="0.898396"/>
<path d="M341.418 228.713H329.787M329.787 228.713V235.546M329.787 228.713V220.571M329.787 247.788V242.38M329.787 242.38V235.546M329.787 242.38H341.418M329.787 235.546H341.418" stroke="white" stroke-width="0.898396"/>
</g>
<defs>
<filter id="filter0_b_1905_266" x="-22.1752" y="13.8248" width="408.35" height="278.35" filterUnits="userSpaceOnUse" color-interpolation-filters="sRGB">
<feFlood flood-opacity="0" result="BackgroundImageFix"/>
<feGaussianBlur in="BackgroundImageFix" stdDeviation="11.4545"/>
<feComposite in2="SourceAlpha" operator="in" result="effect1_backgroundBlur_1905_266"/>
<feBlend mode="normal" in="SourceGraphic" in2="effect1_backgroundBlur_1905_266" result="shape"/>
</filter>
<filter id="filter1_f_1905_266" x="45.2627" y="-187.286" width="468.777" height="351.306" filterUnits="userSpaceOnUse" color-interpolation-filters="sRGB">
<feFlood flood-opacity="0" result="BackgroundImageFix"/>
<feBlend mode="normal" in="SourceGraphic" in2="BackgroundImageFix" result="shape"/>
<feGaussianBlur stdDeviation="27.9144" result="effect1_foregroundBlur_1905_266"/>
</filter>
<filter id="filter2_f_1905_266" x="-7.12112" y="-221.536" width="468.777" height="351.306" filterUnits="userSpaceOnUse" color-interpolation-filters="sRGB">
<feFlood flood-opacity="0" result="BackgroundImageFix"/>
<feBlend mode="normal" in="SourceGraphic" in2="BackgroundImageFix" result="shape"/>
<feGaussianBlur stdDeviation="27.9144" result="effect1_foregroundBlur_1905_266"/>
</filter>
<filter id="filter3_di_1905_266" x="19.9421" y="129.762" width="282.08" height="24.4939" filterUnits="userSpaceOnUse" color-interpolation-filters="sRGB">
<feFlood flood-opacity="0" result="BackgroundImageFix"/>
<feColorMatrix in="SourceAlpha" type="matrix" values="0 0 0 0 0 0 0 0 0 0 0 0 0 0 0 0 0 0 127 0" result="hardAlpha"/>
<feOffset dy="1.28342"/>
<feGaussianBlur stdDeviation="1.60428"/>
<feComposite in2="hardAlpha" operator="out"/>
<feColorMatrix type="matrix" values="0 0 0 0 0.0916667 0 0 0 0 0.0916667 0 0 0 0 0.0916667 0 0 0 0.4 0"/>
<feBlend mode="normal" in2="BackgroundImageFix" result="effect1_dropShadow_1905_266"/>
<feBlend mode="normal" in="SourceGraphic" in2="effect1_dropShadow_1905_266" result="shape"/>
<feColorMatrix in="SourceAlpha" type="matrix" values="0 0 0 0 0 0 0 0 0 0 0 0 0 0 0 0 0 0 127 0" result="hardAlpha"/>
<feOffset dy="2.56684"/>
<feGaussianBlur stdDeviation="1.28342"/>
<feComposite in2="hardAlpha" operator="arithmetic" k2="-1" k3="1"/>
<feColorMatrix type="matrix" values="0 0 0 0 0.683333 0 0 0 0 0.683333 0 0 0 0 0.683333 0 0 0 0.25 0"/>
<feBlend mode="normal" in2="shape" result="effect2_innerShadow_1905_266"/>
</filter>
<filter id="filter4_di_1905_266" x="20.3182" y="190.348" width="91.0253" height="15.5939" filterUnits="userSpaceOnUse" color-interpolation-filters="sRGB">
<feFlood flood-opacity="0" result="BackgroundImageFix"/>
<feColorMatrix in="SourceAlpha" type="matrix" values="0 0 0 0 0 0 0 0 0 0 0 0 0 0 0 0 0 0 127 0" result="hardAlpha"/>
<feOffset dy="2.56684"/>
<feGaussianBlur stdDeviation="1.28342"/>
<feComposite in2="hardAlpha" operator="out"/>
<feColorMatrix type="matrix" values="0 0 0 0 0.0875 0 0 0 0 0.0875 0 0 0 0 0.0875 0 0 0 0.16 0"/>
<feBlend mode="normal" in2="BackgroundImageFix" result="effect1_dropShadow_1905_266"/>
<feBlend mode="normal" in="SourceGraphic" in2="effect1_dropShadow_1905_266" result="shape"/>
<feColorMatrix in="SourceAlpha" type="matrix" values="0 0 0 0 0 0 0 0 0 0 0 0 0 0 0 0 0 0 127 0" result="hardAlpha"/>
<feOffset dy="2.56684"/>
<feGaussianBlur stdDeviation="1.28342"/>
<feComposite in2="hardAlpha" operator="arithmetic" k2="-1" k3="1"/>
<feColorMatrix type="matrix" values="0 0 0 0 0.682353 0 0 0 0 0.682353 0 0 0 0 0.682353 0 0 0 0.25 0"/>
<feBlend mode="normal" in2="shape" result="effect2_innerShadow_1905_266"/>
</filter>
<filter id="filter5_di_1905_266" x="20.1341" y="237.01" width="46.5072" height="17.324" filterUnits="userSpaceOnUse" color-interpolation-filters="sRGB">
<feFlood flood-opacity="0" result="BackgroundImageFix"/>
<feColorMatrix in="SourceAlpha" type="matrix" values="0 0 0 0 0 0 0 0 0 0 0 0 0 0 0 0 0 0 127 0" result="hardAlpha"/>
<feOffset dy="2.56684"/>
<feGaussianBlur stdDeviation="1.28342"/>
<feComposite in2="hardAlpha" operator="out"/>
<feColorMatrix type="matrix" values="0 0 0 0 0.0875 0 0 0 0 0.0875 0 0 0 0 0.0875 0 0 0 0.16 0"/>
<feBlend mode="normal" in2="BackgroundImageFix" result="effect1_dropShadow_1905_266"/>
<feBlend mode="normal" in="SourceGraphic" in2="effect1_dropShadow_1905_266" result="shape"/>
<feColorMatrix in="SourceAlpha" type="matrix" values="0 0 0 0 0 0 0 0 0 0 0 0 0 0 0 0 0 0 127 0" result="hardAlpha"/>
<feOffset dy="2.56684"/>
<feGaussianBlur stdDeviation="1.28342"/>
<feComposite in2="hardAlpha" operator="arithmetic" k2="-1" k3="1"/>
<feColorMatrix type="matrix" values="0 0 0 0 0.682353 0 0 0 0 0.682353 0 0 0 0 0.682353 0 0 0 0.25 0"/>
<feBlend mode="normal" in2="shape" result="effect2_innerShadow_1905_266"/>
</filter>
<linearGradient id="paint0_linear_1905_266" x1="2" y1="38" x2="130.405" y2="360.275" gradientUnits="userSpaceOnUse">
<stop stop-color="white" stop-opacity="0.4"/>
<stop offset="1" stop-color="white" stop-opacity="0"/>
</linearGradient>
<radialGradient id="paint1_radial_1905_266" cx="0" cy="0" r="1" gradientUnits="userSpaceOnUse" gradientTransform="translate(2 38) rotate(32.5741) scale(427.2 269.348)">
<stop stop-color="white" stop-opacity="0.7"/>
<stop offset="0.677083" stop-color="#B691FF" stop-opacity="0.4"/>
<stop offset="1" stop-color="white" stop-opacity="0"/>
</radialGradient>
<linearGradient id="paint2_linear_1905_266" x1="351.951" y1="264.167" x2="316.94" y2="120.187" gradientUnits="userSpaceOnUse">
<stop stop-color="white" stop-opacity="0.32"/>
<stop offset="0.140625" stop-color="#F9FFF5"/>
<stop offset="1" stop-color="white" stop-opacity="0"/>
</linearGradient>
<linearGradient id="paint3_linear_1905_266" x1="357.631" y1="39.7424" x2="323.401" y2="184.648" gradientUnits="userSpaceOnUse">
<stop stop-color="#53555E"/>
<stop offset="1" stop-color="white" stop-opacity="0"/>
</linearGradient>
</defs>
</svg>
