<svg width="364" height="234" viewBox="0 0 364 234" fill="none" xmlns="http://www.w3.org/2000/svg">
<g filter="url(#filter0_b_1904_188)">
<rect x="2" y="2" width="360" height="230" rx="15.1928" fill="url(#paint0_linear_1904_188)"/>
<rect x="1.36697" y="1.36697" width="361.266" height="231.266" rx="15.8259" stroke="url(#paint1_radial_1904_188)" stroke-width="1.26607"/>
<rect x="1.36697" y="1.36697" width="361.266" height="231.266" rx="15.8259" stroke="url(#paint2_linear_1904_188)" stroke-opacity="0.4" stroke-width="1.26607"/>
<rect x="1.36697" y="1.36697" width="361.266" height="231.266" rx="15.8259" stroke="url(#paint3_linear_1904_188)" stroke-width="1.26607"/>
</g>
<mask id="mask0_1904_188" style="mask-type:alpha" maskUnits="userSpaceOnUse" x="2" y="2" width="360" height="230">
<rect x="2" y="2" width="360" height="230" rx="15.4011" fill="#16084C"/>
</mask>
<g mask="url(#mask0_1904_188)">
<g filter="url(#filter1_f_1904_188)">
<path d="M453.518 -133.506C475.881 -87.3533 416.166 -11.492 320.142 35.9347C224.118 83.3613 128.147 84.3937 105.784 38.2406C83.4215 -7.91245 143.136 -83.7738 239.16 -131.2C335.184 -178.627 431.156 -179.659 453.518 -133.506Z" fill="#1E2DB6"/>
</g>
<g filter="url(#filter2_f_1904_188)">
<path d="M401.134 -167.756C423.497 -121.603 363.783 -45.742 267.758 1.68465C171.734 49.1113 75.7629 50.1437 53.4003 3.99062C31.0377 -42.1624 90.7521 -118.024 186.776 -165.45C282.8 -212.877 378.772 -213.909 401.134 -167.756Z" fill="#F41313"/>
</g>
</g>
<path fill-rule="evenodd" clip-rule="evenodd" d="M23.3845 40.4548L23.3807 40.4599L23.3771 40.4651C23.1722 40.7552 22.7132 40.8405 22.3542 40.587C22.0669 40.384 21.9805 39.9319 22.2252 39.5745C22.5903 39.1092 22.8554 38.5651 23.0295 38.0333C23.2108 37.4796 23.2951 36.8505 23.2918 36.2334C23.2886 35.6164 23.1976 34.9881 23.0104 34.4364C22.8306 33.9065 22.5597 33.3653 22.1897 32.9039C21.9412 32.5491 22.0228 32.0961 22.3079 31.8901C22.6642 31.6328 23.124 31.7131 23.332 32.001L23.3357 32.0062L23.3396 32.0113C23.8001 32.6185 24.1778 33.2932 24.4035 33.9552C24.6411 34.7338 24.7925 35.4871 24.7964 36.2254C24.8005 37.0024 24.7263 37.7377 24.4412 38.4616C24.1307 39.2501 23.83 39.8542 23.3845 40.4548ZM26.7142 41.8969L26.7232 41.8841L26.7314 41.8709C27.7521 40.2356 28.3408 38.2623 28.3299 36.2066C28.3189 34.1514 27.7095 32.1849 26.672 30.5608C26.4471 30.2043 26.5481 29.7827 26.9271 29.5089C27.1817 29.325 27.6595 29.3901 27.943 29.7701C29.1145 31.6287 29.8221 33.8755 29.8344 36.1986C29.8472 38.601 29.1641 40.7748 28.0115 42.647C27.7449 43.014 27.3367 43.1168 26.9847 42.9088C26.603 42.6292 26.5333 42.153 26.7142 41.8969ZM32.6892 27.3271L32.6992 27.347L32.7109 27.366C34.2982 29.9539 35.1803 32.939 35.1975 36.17C35.2147 39.3996 34.3652 42.3926 32.8069 44.9964C32.568 45.3806 32.1647 45.4889 31.7558 45.2986C31.3836 45.056 31.2836 44.6541 31.478 44.2481C32.8033 41.8945 33.6274 39.121 33.6117 36.1785C33.5961 33.249 32.8301 30.4799 31.3894 28.1262C31.1944 27.7242 31.291 27.324 31.6587 27.0787C32.1024 26.8667 32.5346 27.0221 32.6892 27.3271ZM37.3892 24.8643L37.396 24.8779L37.4037 24.891C39.3272 28.216 40.4573 32.0174 40.4793 36.1419C40.5012 40.2621 39.4139 44.0718 37.5295 47.4146C37.2901 47.7943 36.8887 47.9006 36.4817 47.7112C36.1107 47.4695 36.0102 47.0693 36.2022 46.6646C38.0176 43.5663 38.9951 39.9767 38.9748 36.1499C38.9543 32.3133 37.8525 28.7376 36.0925 25.6698C35.872 25.2219 36.0274 24.7833 36.3352 24.6274C36.787 24.3984 37.2319 24.5538 37.3892 24.8643Z" fill="white"/>
<path fill-rule="evenodd" clip-rule="evenodd" d="M315 44.894C316.118 43.7661 317.01 42.3923 317.62 40.8607C318.23 39.329 318.543 37.6734 318.54 35.9999C318.543 34.3264 318.23 32.6707 317.62 31.1391C317.01 29.6075 316.118 28.2336 315 27.1058C313.088 25.176 310.553 24 307.77 24C301.822 24 297 29.3725 297 35.9999C297 42.6271 301.822 47.9998 307.77 47.9998C310.553 47.9998 313.089 46.8238 315 44.894Z" fill="#9E9E9E"/>
<path fill-rule="evenodd" clip-rule="evenodd" d="M322.23 24C319.447 24 316.911 25.176 315 27.1058C314.61 27.4997 314.247 27.9243 313.913 28.3763H316.087C316.385 28.7797 316.66 29.2042 316.908 29.647H313.092C312.862 30.0565 312.654 30.4808 312.471 30.9177H317.528C317.702 31.3312 317.855 31.7554 317.985 32.1882H312.015C311.889 32.605 311.785 33.0292 311.702 33.4587H318.298C318.46 34.294 318.541 35.1457 318.541 35.9999C318.541 37.3321 318.345 38.6139 317.985 39.8114H312.015C312.144 40.2443 312.297 40.6685 312.471 41.0821H317.528C317.345 41.519 317.138 41.9434 316.908 42.3528H313.092C313.34 42.7956 313.614 43.22 313.912 43.6235H316.087C315.753 44.0757 315.39 44.5004 315 44.8942C316.911 46.824 319.447 48 322.23 48C328.178 48 333 42.6273 333 36.0001C333 29.3725 328.178 24 322.23 24Z" fill="white"/>
<path fill-rule="evenodd" clip-rule="evenodd" d="M331.566 42.689C331.566 42.4749 331.722 42.3013 331.914 42.3013C332.106 42.3013 332.262 42.4749 332.262 42.689C332.262 42.9027 332.106 43.0763 331.914 43.0763C331.821 43.076 331.733 43.035 331.667 42.9624C331.602 42.8897 331.566 42.7914 331.566 42.689V42.689ZM331.914 42.9831C332.06 42.9831 332.178 42.8518 332.178 42.6888C332.178 42.5258 332.06 42.3941 331.914 42.3941C331.768 42.3941 331.649 42.5258 331.649 42.6888C331.649 42.8518 331.768 42.9831 331.914 42.9831ZM331.867 42.8588H331.795V42.5179H331.925C331.952 42.5179 331.979 42.5188 332.003 42.5354C332.015 42.545 332.025 42.5577 332.032 42.5726C332.038 42.5874 332.042 42.6039 332.042 42.6205C332.042 42.6588 332.021 42.695 331.989 42.7086L332.045 42.8586H331.966L331.919 42.7239H331.867V42.8588V42.666H331.907C331.921 42.666 331.937 42.6669 331.95 42.659C331.956 42.6547 331.96 42.6488 331.963 42.642C331.966 42.6351 331.968 42.6275 331.968 42.6199C331.968 42.613 331.966 42.6063 331.963 42.6003C331.96 42.5943 331.956 42.5892 331.951 42.5854C331.938 42.5771 331.918 42.5792 331.905 42.5792H331.867V42.8588H331.867Z" fill="white"/>
<path fill-rule="evenodd" clip-rule="evenodd" d="M329.288 38.6006C329.288 38.3865 329.444 38.2129 329.636 38.2129C329.828 38.2129 329.984 38.3865 329.984 38.6006C329.984 38.8147 329.828 38.988 329.636 38.988C329.444 38.988 329.288 38.8145 329.288 38.6006ZM329.636 38.8947C329.781 38.8947 329.9 38.763 329.9 38.6004C329.9 38.4374 329.781 38.3057 329.636 38.3057C329.489 38.3057 329.371 38.4374 329.371 38.6004C329.371 38.763 329.49 38.8947 329.636 38.8947ZM329.589 38.7705H329.517V38.43H329.647C329.673 38.43 329.701 38.4304 329.724 38.4474C329.737 38.4569 329.747 38.4696 329.753 38.4844C329.76 38.4991 329.764 38.5155 329.763 38.5321C329.763 38.5708 329.743 38.6066 329.71 38.6202L329.767 38.7702H329.688L329.641 38.6355H329.589V38.7705V38.5776H329.628C329.643 38.5776 329.659 38.5789 329.672 38.5711C329.677 38.5666 329.682 38.5608 329.685 38.5539C329.688 38.5471 329.69 38.5396 329.69 38.5319C329.69 38.525 329.688 38.5182 329.685 38.5121C329.682 38.506 329.678 38.5008 329.672 38.497C329.66 38.4891 329.64 38.4908 329.627 38.4908H329.589V38.7705H329.589ZM306.424 38.988H305.084L305.881 34.3112L304.046 38.988H302.824L302.601 34.338L301.802 38.988H300.585L301.625 32.9043H303.716L303.827 36.6706L305.302 32.9043H307.481L306.424 38.988V38.988ZM321.405 38.9273C321.038 39.0395 320.751 39.0878 320.441 39.0878C319.756 39.0878 319.381 38.7045 319.381 38.0014C319.381 37.8622 319.395 37.7141 319.421 37.5574L319.502 37.0737L319.565 36.6821L320.186 32.9041H321.519L321.326 34.0403H322.01L321.827 35.2431H321.14L320.786 37.3074C320.773 37.3748 320.766 37.4434 320.763 37.5123C320.763 37.7679 320.902 37.879 321.221 37.879C321.373 37.879 321.492 37.8637 321.582 37.8328L321.405 38.9273ZM325.32 34.0809C325.207 34.0315 325.181 34.0315 325.168 34.0275C325.097 34.01 325.059 33.9998 325.052 33.9986C325.008 33.9899 324.963 33.9858 324.918 33.9862C324.478 33.9862 324.16 34.2046 323.75 34.7896L323.868 34.0398H322.654L321.837 38.9877H323.179C323.659 35.9618 323.864 35.4318 324.508 35.4318C324.556 35.4318 324.612 35.4361 324.677 35.4444L324.834 35.4799L325.32 34.0809V34.0809ZM316.091 35.6034C316.091 36.2284 316.407 36.6589 317.124 36.9824C317.673 37.231 317.758 37.3038 317.758 37.5285C317.758 37.8364 317.516 37.9754 316.979 37.9754C316.575 37.9754 316.198 37.9147 315.764 37.7796L315.578 38.9209L315.638 38.9322L315.886 38.9828C315.966 38.9982 316.084 39.0129 316.241 39.026C316.563 39.0539 316.813 39.0671 316.989 39.0671C318.42 39.0671 319.081 38.5447 319.081 37.4161C319.081 36.737 318.804 36.3389 318.125 36.039C317.556 35.7885 317.49 35.733 317.49 35.5021C317.49 35.2354 317.716 35.0984 318.154 35.0984C318.421 35.0984 318.784 35.1262 319.129 35.1726L319.322 34.0273C318.971 33.9741 318.438 33.9305 318.129 33.9305C316.611 33.9307 316.086 34.6908 316.091 35.6034V35.6034ZM310.782 38.988H309.668L309.694 38.4751C309.355 38.8811 308.903 39.0735 308.288 39.0735C307.562 39.0735 307.063 38.5223 307.063 37.7221C307.063 36.5168 307.929 35.8143 309.418 35.8143C309.57 35.8143 309.764 35.8277 309.964 35.8524C310.005 35.6898 310.017 35.6195 310.017 35.531C310.017 35.2035 309.783 35.0809 309.157 35.0809C308.774 35.0809 308.342 35.1345 308.043 35.2188L307.857 35.2714L307.737 35.3033L307.923 34.1909C308.591 34.0003 309.032 33.9281 309.528 33.9281C310.68 33.9281 311.289 34.4308 311.289 35.3795C311.289 35.6236 311.268 35.809 311.18 36.3597L310.9 38.115L310.852 38.43L310.818 38.6815L310.795 38.8537L310.782 38.988V38.988ZM309.804 36.7836C309.705 36.77 309.605 36.7631 309.505 36.7632C308.745 36.7632 308.36 37.0162 308.36 37.5159C308.36 37.8239 308.548 38.0205 308.841 38.0205C309.387 38.0207 309.781 37.5153 309.804 36.7836ZM315.179 38.8811C314.732 39.0155 314.27 39.083 313.806 39.0818C312.307 39.0805 311.526 38.3204 311.526 36.8651C311.526 35.1667 312.52 33.9162 313.869 33.9162C314.972 33.9162 315.677 34.6166 315.677 35.7147C315.677 36.0792 315.629 36.4346 315.513 36.9362H312.847C312.839 36.9875 312.835 37.0395 312.834 37.0916C312.834 37.6651 313.232 37.9577 314.01 37.9577C314.489 37.9577 314.922 37.8609 315.402 37.6447L315.179 38.8811ZM314.466 35.9371C314.473 35.8341 314.477 35.7498 314.477 35.6847C314.477 35.2829 314.242 35.0471 313.843 35.0471C313.416 35.0471 313.111 35.3633 312.988 35.9341L314.466 35.9371ZM329.486 36.7447C329.286 38.3906 328.254 39.1205 326.883 39.1205C325.366 39.1205 324.754 38.0956 324.754 36.8398C324.754 35.0862 325.791 33.8981 327.393 33.8981C328.784 33.8981 329.522 34.8751 329.522 36.1312C329.522 36.4368 329.522 36.457 329.486 36.7447ZM328.106 36.1116C328.106 35.594 327.917 35.1054 327.368 35.1054C326.684 35.1054 326.26 36.0062 326.26 36.8015C326.26 37.4723 326.55 37.923 327.03 37.9135C327.32 37.9135 327.94 37.4725 328.062 36.7023C328.091 36.5227 328.106 36.3257 328.106 36.1116V36.1116Z" fill="#020947"/>
<g filter="url(#filter3_di_1904_188)">
<path d="M23.1506 110.312V107.406L30.4375 95.9255H32.9432V99.9482H31.4602L26.8665 107.218V107.354H37.2216V110.312H23.1506ZM31.5284 113.38V109.425L31.5966 108.139V95.9255H35.0568V113.38H31.5284ZM40.6404 113.38V110.721L46.8535 104.968C47.3819 104.457 47.8251 103.996 48.183 103.587C48.5466 103.178 48.8222 102.778 49.0097 102.386C49.1972 101.988 49.291 101.559 49.291 101.099C49.291 100.587 49.1745 100.147 48.9415 99.7777C48.7086 99.4027 48.3904 99.1158 47.987 98.9169C47.5836 98.7124 47.1262 98.6101 46.6148 98.6101C46.0807 98.6101 45.6148 98.7181 45.2171 98.934C44.8194 99.1499 44.5126 99.4595 44.2966 99.863C44.0807 100.266 43.9728 100.746 43.9728 101.303H40.4699C40.4699 100.161 40.7285 99.1698 41.2455 98.3289C41.7626 97.488 42.487 96.8374 43.4188 96.3772C44.3506 95.9169 45.4245 95.6868 46.6404 95.6868C47.8904 95.6868 48.9785 95.9084 49.9046 96.3516C50.8364 96.7891 51.5609 97.397 52.0779 98.1755C52.5949 98.9539 52.8535 99.8459 52.8535 100.852C52.8535 101.511 52.7228 102.161 52.4614 102.803C52.2057 103.445 51.7484 104.158 51.0893 104.943C50.4302 105.721 49.5012 106.656 48.3023 107.746L45.754 110.244V110.363H53.0836V113.38H40.6404ZM56.0784 110.312V107.406L63.3653 95.9255H65.871V99.9482H64.388L59.7943 107.218V107.354H70.1494V110.312H56.0784ZM64.4562 113.38V109.425L64.5244 108.139V95.9255H67.9846V113.38H64.4562ZM73.5682 113.38V110.721L79.7813 104.968C80.3097 104.457 80.7529 103.996 81.1108 103.587C81.4745 103.178 81.75 102.778 81.9375 102.386C82.125 101.988 82.2188 101.559 82.2188 101.099C82.2188 100.587 82.1023 100.147 81.8693 99.7777C81.6364 99.4027 81.3182 99.1158 80.9148 98.9169C80.5114 98.7124 80.054 98.6101 79.5426 98.6101C79.0086 98.6101 78.5426 98.7181 78.1449 98.934C77.7472 99.1499 77.4404 99.4595 77.2245 99.863C77.0086 100.266 76.9006 100.746 76.9006 101.303H73.3978C73.3978 100.161 73.6563 99.1698 74.1733 98.3289C74.6904 97.488 75.4148 96.8374 76.3466 96.3772C77.2784 95.9169 78.3523 95.6868 79.5682 95.6868C80.8182 95.6868 81.9063 95.9084 82.8324 96.3516C83.7642 96.7891 84.4887 97.397 85.0057 98.1755C85.5228 98.9539 85.7813 99.8459 85.7813 100.852C85.7813 101.511 85.6506 102.161 85.3892 102.803C85.1336 103.445 84.6762 104.158 84.0171 104.943C83.358 105.721 82.429 106.656 81.2301 107.746L78.6818 110.244V110.363H86.0114V113.38H73.5682ZM95.8959 110.312V107.406L103.183 95.9255H105.688V99.9482H104.206L99.6118 107.218V107.354H109.967V110.312H95.8959ZM104.274 113.38V109.425L104.342 108.139V95.9255H107.802V113.38H104.274ZM119.761 113.619C118.556 113.619 117.482 113.397 116.539 112.954C115.602 112.511 114.857 111.9 114.306 111.121C113.755 110.343 113.468 109.451 113.445 108.445H117.025C117.065 109.121 117.349 109.67 117.877 110.09C118.406 110.511 119.033 110.721 119.761 110.721C120.34 110.721 120.852 110.593 121.295 110.337C121.744 110.076 122.093 109.715 122.343 109.255C122.599 108.789 122.727 108.255 122.727 107.653C122.727 107.039 122.596 106.499 122.335 106.033C122.079 105.568 121.724 105.204 121.269 104.943C120.815 104.681 120.295 104.548 119.71 104.542C119.198 104.542 118.701 104.647 118.218 104.857C117.741 105.068 117.369 105.354 117.102 105.718L113.82 105.13L114.647 95.9255H125.318V98.9425H117.69L117.238 103.315H117.34C117.647 102.883 118.11 102.525 118.729 102.241C119.349 101.957 120.042 101.815 120.809 101.815C121.86 101.815 122.798 102.062 123.622 102.556C124.445 103.05 125.096 103.729 125.573 104.593C126.05 105.451 126.286 106.44 126.281 107.559C126.286 108.735 126.014 109.781 125.462 110.695C124.917 111.604 124.153 112.32 123.17 112.843C122.193 113.36 121.056 113.619 119.761 113.619ZM136.513 113.619C135.616 113.613 134.749 113.462 133.914 113.167C133.084 112.871 132.34 112.391 131.681 111.727C131.022 111.062 130.499 110.181 130.113 109.085C129.732 107.988 129.542 106.641 129.542 105.045C129.547 103.579 129.715 102.269 130.045 101.116C130.38 99.9567 130.857 98.9738 131.476 98.1669C132.101 97.3601 132.849 96.7465 133.718 96.326C134.587 95.8999 135.562 95.6868 136.641 95.6868C137.806 95.6868 138.834 95.9141 139.726 96.3686C140.618 96.8175 141.334 97.4283 141.874 98.201C142.42 98.9738 142.749 99.8402 142.863 100.8H139.224C139.082 100.193 138.783 99.7152 138.329 99.3686C137.874 99.0221 137.312 98.8488 136.641 98.8488C135.505 98.8488 134.641 99.3431 134.05 100.332C133.465 101.32 133.167 102.664 133.155 104.363H133.275C133.536 103.846 133.888 103.406 134.332 103.042C134.78 102.673 135.289 102.391 135.857 102.198C136.431 101.999 137.036 101.9 137.672 101.9C138.707 101.9 139.627 102.144 140.434 102.633C141.241 103.116 141.877 103.781 142.343 104.627C142.809 105.474 143.042 106.443 143.042 107.533C143.042 108.715 142.766 109.766 142.215 110.687C141.67 111.607 140.905 112.329 139.922 112.852C138.945 113.369 137.809 113.624 136.513 113.619ZM136.496 110.721C137.064 110.721 137.573 110.585 138.022 110.312C138.471 110.039 138.823 109.67 139.079 109.204C139.334 108.738 139.462 108.215 139.462 107.636C139.462 107.056 139.334 106.536 139.079 106.076C138.829 105.616 138.482 105.249 138.039 104.977C137.596 104.704 137.09 104.568 136.522 104.568C136.096 104.568 135.701 104.647 135.337 104.806C134.979 104.965 134.664 105.187 134.391 105.471C134.124 105.755 133.914 106.085 133.76 106.46C133.607 106.829 133.53 107.224 133.53 107.644C133.53 108.207 133.658 108.721 133.914 109.187C134.175 109.653 134.528 110.025 134.971 110.303C135.42 110.582 135.928 110.721 136.496 110.721ZM146.618 113.38V110.721L152.831 104.968C153.36 104.457 153.803 103.996 154.161 103.587C154.524 103.178 154.8 102.778 154.988 102.386C155.175 101.988 155.269 101.559 155.269 101.099C155.269 100.587 155.152 100.147 154.919 99.7777C154.686 99.4027 154.368 99.1158 153.965 98.9169C153.561 98.7124 153.104 98.6101 152.593 98.6101C152.059 98.6101 151.593 98.7181 151.195 98.934C150.797 99.1499 150.49 99.4595 150.274 99.863C150.059 100.266 149.951 100.746 149.951 101.303H146.448C146.448 100.161 146.706 99.1698 147.223 98.3289C147.74 97.488 148.465 96.8374 149.397 96.3772C150.328 95.9169 151.402 95.6868 152.618 95.6868C153.868 95.6868 154.956 95.9084 155.882 96.3516C156.814 96.7891 157.539 97.397 158.056 98.1755C158.573 98.9539 158.831 99.8459 158.831 100.852C158.831 101.511 158.701 102.161 158.439 102.803C158.184 103.445 157.726 104.158 157.067 104.943C156.408 105.721 155.479 106.656 154.28 107.746L151.732 110.244V110.363H159.061V113.38H146.618ZM169.9 113.38L177.136 99.0618V98.9425H168.707V95.9255H180.954V98.9851L173.71 113.38H169.9ZM185.603 113.38L192.838 99.0618V98.9425H184.409V95.9255H196.657V98.9851L189.412 113.38H185.603ZM207.739 95.9255V113.38H204.049V99.4283H203.947L199.95 101.934V98.6613L204.271 95.9255H207.739ZM219.692 113.764C218.226 113.758 216.964 113.397 215.908 112.681C214.856 111.965 214.047 110.928 213.479 109.57C212.916 108.212 212.638 106.579 212.643 104.67C212.643 102.766 212.925 101.144 213.487 99.8033C214.055 98.4624 214.865 97.4425 215.916 96.7436C216.973 96.0391 218.231 95.6868 219.692 95.6868C221.152 95.6868 222.408 96.0391 223.459 96.7436C224.516 97.4482 225.328 98.4709 225.896 99.8118C226.464 101.147 226.746 102.766 226.74 104.67C226.74 106.585 226.456 108.221 225.888 109.579C225.325 110.937 224.518 111.974 223.467 112.69C222.416 113.406 221.158 113.764 219.692 113.764ZM219.692 110.704C220.692 110.704 221.49 110.201 222.087 109.195C222.683 108.19 222.979 106.681 222.973 104.67C222.973 103.346 222.837 102.244 222.564 101.363C222.297 100.482 221.916 99.8203 221.422 99.3772C220.933 98.934 220.356 98.7124 219.692 98.7124C218.697 98.7124 217.902 99.2096 217.305 100.204C216.709 101.198 216.408 102.687 216.402 104.67C216.402 106.011 216.535 107.13 216.802 108.028C217.075 108.92 217.459 109.59 217.953 110.039C218.447 110.482 219.027 110.704 219.692 110.704ZM243.298 113.619C242.025 113.619 240.891 113.4 239.897 112.962C238.909 112.519 238.127 111.911 237.553 111.139C236.985 110.36 236.693 109.462 236.676 108.445H240.391C240.414 108.871 240.553 109.246 240.809 109.57C241.07 109.889 241.417 110.136 241.849 110.312C242.281 110.488 242.766 110.576 243.306 110.576C243.869 110.576 244.366 110.477 244.798 110.278C245.23 110.079 245.568 109.803 245.812 109.451C246.056 109.099 246.178 108.693 246.178 108.232C246.178 107.766 246.048 107.354 245.786 106.996C245.531 106.633 245.161 106.349 244.678 106.144C244.201 105.94 243.633 105.837 242.974 105.837H241.346V103.127H242.974C243.531 103.127 244.022 103.031 244.448 102.837C244.88 102.644 245.215 102.377 245.454 102.036C245.693 101.69 245.812 101.286 245.812 100.826C245.812 100.389 245.707 100.005 245.497 99.6755C245.292 99.3402 245.002 99.0789 244.627 98.8914C244.258 98.7039 243.826 98.6101 243.332 98.6101C242.832 98.6101 242.374 98.701 241.96 98.8828C241.545 99.059 241.212 99.3118 240.962 99.6414C240.712 99.9709 240.579 100.357 240.562 100.8H237.025C237.042 99.7948 237.329 98.9084 237.886 98.1414C238.443 97.3743 239.193 96.7749 240.136 96.3431C241.085 95.9056 242.156 95.6868 243.349 95.6868C244.553 95.6868 245.607 95.9056 246.511 96.3431C247.414 96.7806 248.116 97.3715 248.616 98.1158C249.122 98.8544 249.372 99.684 249.366 100.604C249.372 101.582 249.068 102.397 248.454 103.05C247.846 103.704 247.053 104.119 246.076 104.295V104.431C247.36 104.596 248.337 105.042 249.008 105.769C249.684 106.491 250.019 107.394 250.014 108.479C250.019 109.474 249.732 110.357 249.153 111.13C248.579 111.903 247.786 112.511 246.775 112.954C245.764 113.397 244.605 113.619 243.298 113.619ZM260.001 113.619C258.797 113.619 257.723 113.397 256.78 112.954C255.842 112.511 255.098 111.9 254.547 111.121C253.996 110.343 253.709 109.451 253.686 108.445H257.266C257.305 109.121 257.589 109.67 258.118 110.09C258.646 110.511 259.274 110.721 260.001 110.721C260.581 110.721 261.092 110.593 261.535 110.337C261.984 110.076 262.334 109.715 262.584 109.255C262.839 108.789 262.967 108.255 262.967 107.653C262.967 107.039 262.837 106.499 262.575 106.033C262.32 105.568 261.964 105.204 261.51 104.943C261.055 104.681 260.535 104.548 259.95 104.542C259.439 104.542 258.942 104.647 258.459 104.857C257.981 105.068 257.609 105.354 257.342 105.718L254.061 105.13L254.888 95.9255H265.558V98.9425H257.93L257.479 103.315H257.581C257.888 102.883 258.351 102.525 258.97 102.241C259.589 101.957 260.283 101.815 261.05 101.815C262.101 101.815 263.038 102.062 263.862 102.556C264.686 103.05 265.337 103.729 265.814 104.593C266.291 105.451 266.527 106.44 266.521 107.559C266.527 108.735 266.254 109.781 265.703 110.695C265.158 111.604 264.393 112.32 263.41 112.843C262.433 113.36 261.297 113.619 260.001 113.619ZM276.899 113.764C275.433 113.758 274.172 113.397 273.115 112.681C272.064 111.965 271.254 110.928 270.686 109.57C270.123 108.212 269.845 106.579 269.851 104.67C269.851 102.766 270.132 101.144 270.694 99.8033C271.262 98.4624 272.072 97.4425 273.123 96.7436C274.18 96.0391 275.439 95.6868 276.899 95.6868C278.359 95.6868 279.615 96.0391 280.666 96.7436C281.723 97.4482 282.535 98.4709 283.103 99.8118C283.672 101.147 283.953 102.766 283.947 104.67C283.947 106.585 283.663 108.221 283.095 109.579C282.532 110.937 281.726 111.974 280.674 112.69C279.623 113.406 278.365 113.764 276.899 113.764ZM276.899 110.704C277.899 110.704 278.697 110.201 279.294 109.195C279.89 108.19 280.186 106.681 280.18 104.67C280.18 103.346 280.044 102.244 279.771 101.363C279.504 100.482 279.123 99.8203 278.629 99.3772C278.14 98.934 277.564 98.7124 276.899 98.7124C275.905 98.7124 275.109 99.2096 274.512 100.204C273.916 101.198 273.615 102.687 273.609 104.67C273.609 106.011 273.743 107.13 274.01 108.028C274.282 108.92 274.666 109.59 275.16 110.039C275.655 110.482 276.234 110.704 276.899 110.704ZM287.76 113.38L294.996 99.0618V98.9425H286.567V95.9255H298.814V98.9851L291.57 113.38H287.76Z" fill="#E8E8E8"/>
</g>
<path d="M28.6477 137.396V144.669H27.7955L23.8324 138.958H23.7614V144.669H22.8807V137.396H23.733L27.7102 143.12H27.7812V137.396H28.6477ZM32.5123 144.782C32.0198 144.782 31.5878 144.665 31.2161 144.431C30.8468 144.196 30.5579 143.869 30.3496 143.447C30.1436 143.026 30.0407 142.533 30.0407 141.97C30.0407 141.402 30.1436 140.906 30.3496 140.482C30.5579 140.058 30.8468 139.729 31.2161 139.495C31.5878 139.26 32.0198 139.143 32.5123 139.143C33.0047 139.143 33.4355 139.26 33.8049 139.495C34.1766 139.729 34.4654 140.058 34.6713 140.482C34.8797 140.906 34.9838 141.402 34.9838 141.97C34.9838 142.533 34.8797 143.026 34.6713 143.447C34.4654 143.869 34.1766 144.196 33.8049 144.431C33.4355 144.665 33.0047 144.782 32.5123 144.782ZM32.5123 144.029C32.8863 144.029 33.1941 143.934 33.4355 143.742C33.677 143.55 33.8558 143.298 33.9718 142.985C34.0878 142.673 34.1458 142.334 34.1458 141.97C34.1458 141.605 34.0878 141.266 33.9718 140.951C33.8558 140.636 33.677 140.381 33.4355 140.187C33.1941 139.993 32.8863 139.896 32.5123 139.896C32.1382 139.896 31.8304 139.993 31.589 140.187C31.3475 140.381 31.1687 140.636 31.0527 140.951C30.9367 141.266 30.8787 141.605 30.8787 141.97C30.8787 142.334 30.9367 142.673 31.0527 142.985C31.1687 143.298 31.3475 143.55 31.589 143.742C31.8304 143.934 32.1382 144.029 32.5123 144.029ZM36.2631 144.669V139.214H37.0728V140.066H37.1438C37.2575 139.775 37.4409 139.549 37.6942 139.388C37.9476 139.225 38.2518 139.143 38.6069 139.143C38.9667 139.143 39.2662 139.225 39.5053 139.388C39.7468 139.549 39.935 139.775 40.07 140.066H40.1268C40.2665 139.785 40.476 139.561 40.7553 139.395C41.0347 139.227 41.3697 139.143 41.7603 139.143C42.248 139.143 42.6469 139.296 42.957 139.601C43.2672 139.904 43.4222 140.377 43.4222 141.018V144.669H42.5842V141.018C42.5842 140.616 42.4741 140.328 42.2539 140.155C42.0337 139.982 41.7745 139.896 41.4762 139.896C41.0927 139.896 40.7956 140.012 40.5849 140.244C40.3742 140.474 40.2688 140.765 40.2688 141.118V144.669H39.4165V140.933C39.4165 140.623 39.3159 140.373 39.1147 140.184C38.9135 139.992 38.6542 139.896 38.337 139.896C38.1192 139.896 37.9156 139.954 37.7262 140.07C37.5392 140.186 37.3877 140.347 37.2717 140.553C37.158 140.757 37.1012 140.992 37.1012 141.26V144.669H36.2631ZM47.2415 144.782C46.7159 144.782 46.2625 144.666 45.8814 144.434C45.5026 144.2 45.2102 143.873 45.0043 143.454C44.8007 143.033 44.6989 142.543 44.6989 141.984C44.6989 141.425 44.8007 140.933 45.0043 140.507C45.2102 140.078 45.4967 139.744 45.8636 139.505C46.233 139.264 46.6638 139.143 47.1562 139.143C47.4403 139.143 47.7209 139.19 47.9979 139.285C48.2749 139.38 48.527 139.534 48.7543 139.747C48.9815 139.958 49.1626 140.237 49.2976 140.585C49.4325 140.933 49.5 141.361 49.5 141.87V142.226H45.2955V141.501H48.6477C48.6477 141.193 48.5862 140.919 48.4631 140.677C48.3423 140.436 48.1695 140.245 47.9446 140.105C47.7221 139.966 47.4593 139.896 47.1562 139.896C46.8224 139.896 46.5336 139.979 46.2898 140.145C46.0483 140.308 45.8625 140.521 45.7322 140.784C45.602 141.047 45.5369 141.328 45.5369 141.629V142.112C45.5369 142.524 45.608 142.873 45.75 143.159C45.8944 143.444 46.0945 143.66 46.3501 143.809C46.6058 143.956 46.9029 144.029 47.2415 144.029C47.4616 144.029 47.6605 143.999 47.8381 143.937C48.018 143.873 48.1731 143.779 48.3033 143.653C48.4335 143.525 48.5341 143.367 48.6051 143.177L49.4148 143.404C49.3295 143.679 49.1863 143.921 48.9851 144.129C48.7839 144.335 48.5353 144.496 48.2393 144.612C47.9434 144.726 47.6108 144.782 47.2415 144.782ZM55.647 144.782C55.1925 144.782 54.7912 144.668 54.4432 144.438C54.0952 144.206 53.8229 143.879 53.6264 143.458C53.4299 143.034 53.3317 142.533 53.3317 141.956C53.3317 141.383 53.4299 140.886 53.6264 140.464C53.8229 140.043 54.0964 139.717 54.4467 139.488C54.7971 139.258 55.2019 139.143 55.6612 139.143C56.0163 139.143 56.2969 139.202 56.5028 139.321C56.7112 139.437 56.8698 139.569 56.9787 139.718C57.09 139.865 57.1764 139.986 57.2379 140.081H57.3089V137.396H58.147V144.669H57.3374V143.831H57.2379C57.1764 143.93 57.0888 144.056 56.9751 144.207C56.8615 144.356 56.6993 144.49 56.4886 144.608C56.2779 144.724 55.9974 144.782 55.647 144.782ZM55.7607 144.029C56.0968 144.029 56.3809 143.942 56.6129 143.767C56.8449 143.589 57.0213 143.344 57.142 143.032C57.2628 142.717 57.3232 142.353 57.3232 141.941C57.3232 141.534 57.264 141.178 57.1456 140.873C57.0272 140.565 56.852 140.326 56.62 140.155C56.388 139.982 56.1016 139.896 55.7607 139.896C55.4055 139.896 55.1096 139.987 54.8729 140.169C54.6385 140.349 54.4621 140.594 54.3438 140.904C54.2277 141.212 54.1697 141.558 54.1697 141.941C54.1697 142.33 54.2289 142.682 54.3473 143C54.468 143.315 54.6456 143.565 54.88 143.753C55.1167 143.937 55.4103 144.029 55.7607 144.029ZM62.0142 144.782C61.5218 144.782 61.0897 144.665 60.718 144.431C60.3487 144.196 60.0599 143.869 59.8516 143.447C59.6456 143.026 59.5426 142.533 59.5426 141.97C59.5426 141.402 59.6456 140.906 59.8516 140.482C60.0599 140.058 60.3487 139.729 60.718 139.495C61.0897 139.26 61.5218 139.143 62.0142 139.143C62.5066 139.143 62.9375 139.26 63.3068 139.495C63.6785 139.729 63.9673 140.058 64.1733 140.482C64.3816 140.906 64.4858 141.402 64.4858 141.97C64.4858 142.533 64.3816 143.026 64.1733 143.447C63.9673 143.869 63.6785 144.196 63.3068 144.431C62.9375 144.665 62.5066 144.782 62.0142 144.782ZM62.0142 144.029C62.3883 144.029 62.696 143.934 62.9375 143.742C63.179 143.55 63.3577 143.298 63.4737 142.985C63.5897 142.673 63.6477 142.334 63.6477 141.97C63.6477 141.605 63.5897 141.266 63.4737 140.951C63.3577 140.636 63.179 140.381 62.9375 140.187C62.696 139.993 62.3883 139.896 62.0142 139.896C61.6402 139.896 61.3324 139.993 61.0909 140.187C60.8494 140.381 60.6707 140.636 60.5547 140.951C60.4387 141.266 60.3807 141.605 60.3807 141.97C60.3807 142.334 60.4387 142.673 60.5547 142.985C60.6707 143.298 60.8494 143.55 61.0909 143.742C61.3324 143.934 61.6402 144.029 62.0142 144.029ZM70.9498 139.214V139.924H68.123V139.214H70.9498ZM68.9469 137.907H69.785V143.106C69.785 143.343 69.8193 143.521 69.888 143.639C69.959 143.755 70.0489 143.833 70.1578 143.873C70.2691 143.911 70.3863 143.93 70.5094 143.93C70.6017 143.93 70.6775 143.925 70.7367 143.916C70.7959 143.904 70.8432 143.895 70.8787 143.887L71.0492 144.64C70.9924 144.662 70.9131 144.683 70.8113 144.704C70.7095 144.728 70.5804 144.74 70.4242 144.74C70.1874 144.74 69.9554 144.689 69.7282 144.587C69.5033 144.485 69.3162 144.33 69.1671 144.122C69.0203 143.913 68.9469 143.651 68.9469 143.333V137.907ZM72.2104 144.669V139.214H73.0485V144.669H72.2104ZM72.6365 138.305C72.4732 138.305 72.3323 138.249 72.214 138.138C72.098 138.027 72.04 137.893 72.04 137.737C72.04 137.581 72.098 137.447 72.214 137.336C72.3323 137.224 72.4732 137.169 72.6365 137.169C72.7999 137.169 72.9396 137.224 73.0556 137.336C73.1739 137.447 73.2331 137.581 73.2331 137.737C73.2331 137.893 73.1739 138.027 73.0556 138.138C72.9396 138.249 72.7999 138.305 72.6365 138.305ZM76.9556 139.214V139.924H74.1289V139.214H76.9556ZM74.9528 137.907H75.7908V143.106C75.7908 143.343 75.8252 143.521 75.8938 143.639C75.9648 143.755 76.0548 143.833 76.1637 143.873C76.275 143.911 76.3922 143.93 76.5153 143.93C76.6076 143.93 76.6834 143.925 76.7425 143.916C76.8017 143.904 76.8491 143.895 76.8846 143.887L77.055 144.64C76.9982 144.662 76.9189 144.683 76.8171 144.704C76.7153 144.728 76.5863 144.74 76.43 144.74C76.1933 144.74 75.9613 144.689 75.734 144.587C75.5091 144.485 75.3221 144.33 75.1729 144.122C75.0262 143.913 74.9528 143.651 74.9528 143.333V137.907ZM81.6538 142.439V139.214H82.4918V144.669H81.6538V143.745H81.5969C81.4691 144.022 81.2702 144.258 81.0004 144.452C80.7305 144.644 80.3896 144.74 79.9776 144.74C79.6367 144.74 79.3337 144.665 79.0685 144.516C78.8034 144.364 78.5951 144.137 78.4435 143.834C78.292 143.529 78.2163 143.144 78.2163 142.68V139.214H79.0543V142.623C79.0543 143.021 79.1656 143.338 79.3881 143.575C79.613 143.812 79.8995 143.93 80.2475 143.93C80.4558 143.93 80.6677 143.877 80.8832 143.77C81.101 143.664 81.2833 143.5 81.43 143.28C81.5792 143.06 81.6538 142.779 81.6538 142.439ZM84.8649 137.396V144.669H84.0268V137.396H84.8649ZM88.005 144.797C87.6593 144.797 87.3456 144.731 87.0639 144.601C86.7822 144.469 86.5585 144.278 86.3928 144.029C86.227 143.779 86.1442 143.476 86.1442 143.12C86.1442 142.808 86.2057 142.555 86.3288 142.36C86.4519 142.164 86.6165 142.01 86.8224 141.899C87.0284 141.788 87.2557 141.705 87.5043 141.65C87.7552 141.593 88.0073 141.548 88.2607 141.515C88.5921 141.473 88.8608 141.441 89.0668 141.419C89.2751 141.396 89.4266 141.357 89.5213 141.302C89.6184 141.248 89.6669 141.153 89.6669 141.018V140.99C89.6669 140.639 89.571 140.367 89.3793 140.173C89.1899 139.979 88.9022 139.882 88.5163 139.882C88.1162 139.882 87.8026 139.969 87.5753 140.145C87.348 140.32 87.1882 140.507 87.0959 140.706L86.3004 140.422C86.4425 140.09 86.6319 139.832 86.8686 139.647C87.1077 139.46 87.3681 139.33 87.6499 139.257C87.9339 139.181 88.2133 139.143 88.4879 139.143C88.6631 139.143 88.8643 139.164 89.0916 139.207C89.3213 139.247 89.5426 139.331 89.7557 139.459C89.9711 139.587 90.1499 139.78 90.2919 140.038C90.4339 140.296 90.505 140.642 90.505 141.075V144.669H89.6669V143.93H89.6243C89.5675 144.048 89.4728 144.175 89.3402 144.31C89.2076 144.445 89.0313 144.56 88.8111 144.654C88.5909 144.749 88.3222 144.797 88.005 144.797ZM88.1328 144.044C88.4643 144.044 88.7436 143.979 88.9709 143.848C89.2005 143.718 89.3733 143.55 89.4893 143.344C89.6077 143.138 89.6669 142.922 89.6669 142.694V141.927C89.6314 141.97 89.5533 142.009 89.4325 142.044C89.3142 142.078 89.1768 142.107 89.0206 142.133C88.8667 142.157 88.7164 142.178 88.5696 142.197C88.4252 142.214 88.308 142.228 88.218 142.24C88.0002 142.268 87.7966 142.314 87.6072 142.378C87.4202 142.44 87.2687 142.533 87.1527 142.659C87.0391 142.782 86.9822 142.95 86.9822 143.163C86.9822 143.454 87.09 143.674 87.3054 143.824C87.5232 143.97 87.799 144.044 88.1328 144.044ZM92.0346 144.669V139.214H92.8443V140.038H92.9011C93.0005 139.768 93.1805 139.549 93.4409 139.381C93.7013 139.213 93.9949 139.129 94.3216 139.129C94.3831 139.129 94.46 139.13 94.5524 139.132C94.6447 139.135 94.7145 139.138 94.7619 139.143V139.995C94.7335 139.988 94.6684 139.978 94.5666 139.963C94.4672 139.947 94.3618 139.939 94.2505 139.939C93.9854 139.939 93.7486 139.994 93.5403 140.105C93.3343 140.214 93.171 140.366 93.0502 140.56C92.9319 140.752 92.8727 140.971 92.8727 141.217V144.669H92.0346Z" fill="white"/>
<g filter="url(#filter4_di_1904_188)">
<path d="M22.8849 154.487H25.5398L28.3438 161.328H28.4631L31.267 154.487H33.9219V164.669H31.8338V158.042H31.7493L29.1143 164.619H27.6925L25.0575 158.017H24.973V164.669H22.8849V154.487ZM37.4505 164.669H35.1436L38.6586 154.487H41.4327L44.9426 164.669H42.6358L40.0854 156.814H40.0059L37.4505 164.669ZM37.3063 160.667H42.7551V162.347H37.3063V160.667ZM44.5325 154.487H46.9437L49.2654 158.872H49.3649L51.6866 154.487H54.0978L50.3841 161.069V164.669H48.2463V161.069L44.5325 154.487ZM55.2736 164.669V154.487H57.4263V158.976H57.5605L61.2246 154.487H63.8049L60.0265 159.046L63.8496 164.669H61.2743L58.4853 160.483L57.4263 161.775V164.669H55.2736ZM68.1662 164.669V154.487H72.2429C72.992 154.487 73.6167 154.598 74.1172 154.82C74.6177 155.042 74.9938 155.35 75.2457 155.745C75.4976 156.136 75.6236 156.587 75.6236 157.097C75.6236 157.495 75.544 157.844 75.3849 158.146C75.2259 158.444 75.0071 158.69 74.7287 158.882C74.4536 159.071 74.1387 159.205 73.7841 159.284V159.384C74.1719 159.4 74.5348 159.51 74.8729 159.712C75.2143 159.914 75.491 160.198 75.7031 160.562C75.9152 160.923 76.0213 161.354 76.0213 161.855C76.0213 162.395 75.8871 162.877 75.6186 163.302C75.3535 163.722 74.9607 164.056 74.4403 164.301C73.92 164.546 73.2786 164.669 72.5163 164.669H68.1662ZM70.3189 162.909H72.0739C72.6738 162.909 73.1113 162.794 73.3864 162.566C73.6615 162.334 73.799 162.025 73.799 161.641C73.799 161.359 73.7311 161.111 73.5952 160.895C73.4593 160.68 73.2654 160.511 73.0135 160.388C72.7649 160.266 72.4683 160.204 72.1236 160.204H70.3189V162.909ZM70.3189 158.748H71.9148C72.2098 158.748 72.4716 158.696 72.7003 158.593C72.9323 158.487 73.1146 158.338 73.2472 158.146C73.383 157.954 73.451 157.723 73.451 157.455C73.451 157.087 73.3201 156.79 73.0582 156.565C72.7997 156.34 72.4318 156.227 71.9545 156.227H70.3189V158.748ZM77.4221 164.669V154.487H81.4391C82.208 154.487 82.8643 154.624 83.4078 154.9C83.9547 155.171 84.3707 155.557 84.6557 156.058C84.9441 156.555 85.0882 157.14 85.0882 157.813C85.0882 158.489 84.9424 159.071 84.6507 159.558C84.3591 160.042 83.9365 160.413 83.383 160.672C82.8328 160.93 82.1666 161.059 81.3844 161.059H78.6948V159.329H81.0364C81.4474 159.329 81.7888 159.273 82.0605 159.16C82.3323 159.047 82.5345 158.878 82.6671 158.653C82.803 158.428 82.8709 158.148 82.8709 157.813C82.8709 157.475 82.803 157.19 82.6671 156.958C82.5345 156.726 82.3307 156.55 82.0556 156.431C81.7838 156.308 81.4408 156.247 81.0265 156.247H79.5748V164.669H77.4221ZM82.9206 160.035L85.4512 164.669H83.0748L80.5989 160.035H82.9206ZM88.7623 154.487V164.669H86.6096V154.487H88.7623ZM90.1456 156.262V154.487H98.5078V156.262H95.3906V164.669H93.2628V156.262H90.1456ZM108.777 159.578C108.777 160.688 108.566 161.633 108.145 162.412C107.728 163.19 107.158 163.785 106.435 164.196C105.716 164.604 104.907 164.808 104.009 164.808C103.104 164.808 102.292 164.602 101.573 164.191C100.854 163.78 100.285 163.186 99.8675 162.407C99.4499 161.628 99.2411 160.685 99.2411 159.578C99.2411 158.467 99.4499 157.523 99.8675 156.744C100.285 155.965 100.854 155.372 101.573 154.964C102.292 154.553 103.104 154.348 104.009 154.348C104.907 154.348 105.716 154.553 106.435 154.964C107.158 155.372 107.728 155.965 108.145 156.744C108.566 157.523 108.777 158.467 108.777 159.578ZM106.594 159.578C106.594 158.859 106.486 158.252 106.271 157.758C106.059 157.264 105.759 156.89 105.371 156.635C104.983 156.379 104.529 156.252 104.009 156.252C103.489 156.252 103.034 156.379 102.647 156.635C102.259 156.89 101.957 157.264 101.742 157.758C101.53 158.252 101.424 158.859 101.424 159.578C101.424 160.297 101.53 160.904 101.742 161.397C101.957 161.891 102.259 162.266 102.647 162.521C103.034 162.776 103.489 162.904 104.009 162.904C104.529 162.904 104.983 162.776 105.371 162.521C105.759 162.266 106.059 161.891 106.271 161.397C106.486 160.904 106.594 160.297 106.594 159.578Z" fill="white"/>
</g>
<path d="M22.8807 191.669V184.396H27.2699V185.177H23.7614V187.635H27.0426V188.416H23.7614V190.887H27.3267V191.669H22.8807ZM29.3686 186.214L30.6754 188.444L31.9822 186.214H32.9482L31.1868 188.941L32.9482 191.669H31.9822L30.6754 189.552L29.3686 191.669H28.4027L30.1357 188.941L28.4027 186.214H29.3686ZM34.144 193.714V186.214H34.9537V187.081H35.0531C35.1146 186.986 35.1999 186.865 35.3088 186.718C35.42 186.569 35.5787 186.437 35.7846 186.321C35.993 186.202 36.2747 186.143 36.6298 186.143C37.0891 186.143 37.4939 186.258 37.8443 186.488C38.1947 186.717 38.4681 187.043 38.6646 187.464C38.8611 187.886 38.9593 188.383 38.9593 188.956C38.9593 189.533 38.8611 190.034 38.6646 190.458C38.4681 190.879 38.1958 191.206 37.8478 191.438C37.4998 191.668 37.0985 191.782 36.644 191.782C36.2936 191.782 36.0131 191.724 35.8024 191.608C35.5917 191.49 35.4295 191.356 35.3159 191.207C35.2022 191.056 35.1146 190.93 35.0531 190.831H34.9821V193.714H34.144ZM34.9679 188.941C34.9679 189.353 35.0282 189.717 35.149 190.032C35.2697 190.344 35.4461 190.589 35.6781 190.767C35.9101 190.942 36.1942 191.029 36.5304 191.029C36.8807 191.029 37.1731 190.937 37.4075 190.753C37.6442 190.565 37.8218 190.315 37.9402 190C38.0609 189.682 38.1213 189.33 38.1213 188.941C38.1213 188.558 38.0621 188.212 37.9437 187.904C37.8277 187.594 37.6513 187.349 37.4146 187.169C37.1802 186.987 36.8855 186.896 36.5304 186.896C36.1895 186.896 35.903 186.982 35.671 187.155C35.439 187.326 35.2638 187.565 35.1454 187.873C35.027 188.178 34.9679 188.534 34.9679 188.941ZM40.2377 191.669V186.214H41.0758V191.669H40.2377ZM40.6639 185.305C40.5005 185.305 40.3597 185.249 40.2413 185.138C40.1253 185.027 40.0673 184.893 40.0673 184.737C40.0673 184.581 40.1253 184.447 40.2413 184.336C40.3597 184.224 40.5005 184.169 40.6639 184.169C40.8272 184.169 40.9669 184.224 41.0829 184.336C41.2013 184.447 41.2605 184.581 41.2605 184.737C41.2605 184.893 41.2013 185.027 41.0829 185.138C40.9669 185.249 40.8272 185.305 40.6639 185.305ZM42.6108 191.669V186.214H43.4205V187.038H43.4773C43.5767 186.768 43.7566 186.549 44.017 186.381C44.2775 186.213 44.571 186.129 44.8977 186.129C44.9593 186.129 45.0362 186.13 45.1286 186.132C45.2209 186.135 45.2907 186.138 45.3381 186.143V186.995C45.3097 186.988 45.2446 186.978 45.1428 186.963C45.0433 186.947 44.938 186.939 44.8267 186.939C44.5616 186.939 44.3248 186.994 44.1165 187.105C43.9105 187.214 43.7472 187.366 43.6264 187.56C43.508 187.752 43.4489 187.971 43.4489 188.217V191.669H42.6108ZM47.9366 191.797C47.591 191.797 47.2773 191.731 46.9956 191.601C46.7138 191.469 46.4901 191.278 46.3244 191.029C46.1587 190.779 46.0758 190.476 46.0758 190.12C46.0758 189.808 46.1374 189.555 46.2605 189.36C46.3836 189.164 46.5481 189.01 46.7541 188.899C46.96 188.788 47.1873 188.705 47.4359 188.65C47.6868 188.593 47.939 188.548 48.1923 188.515C48.5237 188.473 48.7924 188.441 48.9984 188.419C49.2067 188.396 49.3583 188.357 49.4529 188.302C49.55 188.248 49.5985 188.153 49.5985 188.018V187.99C49.5985 187.639 49.5027 187.367 49.3109 187.173C49.1215 186.979 48.8339 186.882 48.448 186.882C48.0479 186.882 47.7342 186.969 47.5069 187.145C47.2797 187.32 47.1199 187.507 47.0275 187.706L46.2321 187.422C46.3741 187.09 46.5635 186.832 46.8002 186.647C47.0394 186.46 47.2998 186.33 47.5815 186.257C47.8656 186.181 48.1449 186.143 48.4196 186.143C48.5948 186.143 48.796 186.164 49.0233 186.207C49.2529 186.247 49.4743 186.331 49.6873 186.459C49.9028 186.587 50.0815 186.78 50.2235 187.038C50.3656 187.296 50.4366 187.642 50.4366 188.075V191.669H49.5985V190.93H49.5559C49.4991 191.048 49.4044 191.175 49.2718 191.31C49.1393 191.445 48.9629 191.56 48.7427 191.654C48.5225 191.749 48.2538 191.797 47.9366 191.797ZM48.0645 191.044C48.3959 191.044 48.6752 190.979 48.9025 190.848C49.1322 190.718 49.305 190.55 49.421 190.344C49.5394 190.138 49.5985 189.922 49.5985 189.694V188.927C49.563 188.97 49.4849 189.009 49.3642 189.044C49.2458 189.078 49.1085 189.107 48.9522 189.133C48.7984 189.157 48.648 189.178 48.5012 189.197C48.3568 189.214 48.2396 189.228 48.1497 189.24C47.9319 189.268 47.7283 189.314 47.5389 189.378C47.3519 189.44 47.2003 189.533 47.0843 189.659C46.9707 189.782 46.9139 189.95 46.9139 190.163C46.9139 190.454 47.0216 190.674 47.237 190.824C47.4548 190.97 47.7306 191.044 48.0645 191.044ZM54.1822 191.782C53.6708 191.782 53.2305 191.662 52.8612 191.42C52.4918 191.179 52.2077 190.846 52.0089 190.422C51.81 189.998 51.7106 189.514 51.7106 188.97C51.7106 188.416 51.8124 187.927 52.016 187.503C52.2219 187.077 52.5084 186.744 52.8754 186.505C53.2447 186.264 53.6755 186.143 54.168 186.143C54.5515 186.143 54.8971 186.214 55.2049 186.356C55.5127 186.498 55.7648 186.697 55.9613 186.953C56.1578 187.208 56.2797 187.507 56.3271 187.848H55.489C55.4251 187.599 55.283 187.379 55.0629 187.187C54.8451 186.993 54.5515 186.896 54.1822 186.896C53.8555 186.896 53.569 186.981 53.3228 187.152C53.079 187.32 52.8884 187.558 52.7511 187.865C52.6161 188.171 52.5487 188.529 52.5487 188.941C52.5487 189.363 52.6149 189.73 52.7475 190.042C52.8825 190.355 53.0719 190.597 53.3157 190.77C53.5619 190.943 53.8507 191.029 54.1822 191.029C54.4 191.029 54.5977 190.992 54.7752 190.916C54.9528 190.84 55.1031 190.731 55.2262 190.589C55.3493 190.447 55.4369 190.277 55.489 190.078H56.3271C56.2797 190.4 56.1625 190.69 55.9755 190.948C55.7908 191.204 55.5458 191.407 55.2404 191.559C54.9374 191.708 54.5846 191.782 54.1822 191.782ZM53.7844 191.64H54.4805L54.4237 191.924C54.6083 191.953 54.7776 192.03 54.9315 192.155C55.0853 192.283 55.1623 192.485 55.1623 192.762C55.1623 193.068 55.0356 193.316 54.7823 193.508C54.5314 193.702 54.1609 193.799 53.6708 193.799L53.6424 193.245C53.8626 193.245 54.0449 193.21 54.1893 193.139C54.3361 193.07 54.4094 192.954 54.4094 192.791C54.4094 192.628 54.3491 192.516 54.2283 192.457C54.1076 192.398 53.9123 192.358 53.6424 192.336L53.7844 191.64ZM59.1573 191.797C58.8117 191.797 58.498 191.731 58.2163 191.601C57.9345 191.469 57.7108 191.278 57.5451 191.029C57.3794 190.779 57.2965 190.476 57.2965 190.12C57.2965 189.808 57.3581 189.555 57.4812 189.36C57.6043 189.164 57.7688 189.01 57.9748 188.899C58.1808 188.788 58.408 188.705 58.6566 188.65C58.9076 188.593 59.1597 188.548 59.413 188.515C59.7444 188.473 60.0131 188.441 60.2191 188.419C60.4274 188.396 60.579 188.357 60.6737 188.302C60.7707 188.248 60.8192 188.153 60.8192 188.018V187.99C60.8192 187.639 60.7234 187.367 60.5316 187.173C60.3422 186.979 60.0546 186.882 59.6687 186.882C59.2686 186.882 58.9549 186.969 58.7276 187.145C58.5004 187.32 58.3406 187.507 58.2482 187.706L57.4528 187.422C57.5948 187.09 57.7842 186.832 58.021 186.647C58.2601 186.46 58.5205 186.33 58.8022 186.257C59.0863 186.181 59.3656 186.143 59.6403 186.143C59.8155 186.143 60.0167 186.164 60.244 186.207C60.4736 186.247 60.695 186.331 60.908 186.459C61.1235 186.587 61.3022 186.78 61.4442 187.038C61.5863 187.296 61.6573 187.642 61.6573 188.075V191.669H60.8192V190.93H60.7766C60.7198 191.048 60.6251 191.175 60.4925 191.31C60.36 191.445 60.1836 191.56 59.9634 191.654C59.7433 191.749 59.4746 191.797 59.1573 191.797ZM59.2852 191.044C59.6166 191.044 59.896 190.979 60.1232 190.848C60.3529 190.718 60.5257 190.55 60.6417 190.344C60.7601 190.138 60.8192 189.922 60.8192 189.694V188.927C60.7837 188.97 60.7056 189.009 60.5849 189.044C60.4665 189.078 60.3292 189.107 60.1729 189.133C60.0191 189.157 59.8687 189.178 59.7219 189.197C59.5775 189.214 59.4603 189.228 59.3704 189.24C59.1526 189.268 58.949 189.314 58.7596 189.378C58.5726 189.44 58.421 189.533 58.305 189.659C58.1914 189.782 58.1346 189.95 58.1346 190.163C58.1346 190.454 58.2423 190.674 58.4577 190.824C58.6755 190.97 58.9513 191.044 59.2852 191.044ZM58.6033 185.561L57.9499 185.532C57.9499 185.17 58.0529 184.874 58.2589 184.645C58.4672 184.413 58.7241 184.297 59.0295 184.297C59.1644 184.297 59.284 184.32 59.3881 184.368C59.4923 184.413 59.5917 184.465 59.6864 184.524C59.7811 184.583 59.8782 184.636 59.9776 184.684C60.0794 184.729 60.1942 184.751 60.3221 184.751C60.457 184.751 60.5707 184.699 60.663 184.595C60.7577 184.488 60.805 184.36 60.805 184.211L61.4442 184.268C61.4442 184.637 61.3401 184.931 61.1317 185.149C60.9258 185.367 60.6701 185.476 60.3647 185.476C60.2013 185.476 60.0664 185.453 59.9599 185.408C59.8533 185.361 59.7586 185.307 59.6758 185.248C59.5929 185.189 59.5053 185.137 59.413 185.092C59.3207 185.045 59.207 185.021 59.0721 185.021C58.9371 185.021 58.8247 185.074 58.7347 185.181C58.6471 185.285 58.6033 185.412 58.6033 185.561ZM65.4029 191.782C64.9105 191.782 64.4784 191.665 64.1067 191.431C63.7374 191.196 63.4486 190.869 63.2402 190.447C63.0343 190.026 62.9313 189.533 62.9313 188.97C62.9313 188.402 63.0343 187.906 63.2402 187.482C63.4486 187.058 63.7374 186.729 64.1067 186.495C64.4784 186.26 64.9105 186.143 65.4029 186.143C65.8953 186.143 66.3262 186.26 66.6955 186.495C67.0672 186.729 67.356 187.058 67.562 187.482C67.7703 187.906 67.8745 188.402 67.8745 188.97C67.8745 189.533 67.7703 190.026 67.562 190.447C67.356 190.869 67.0672 191.196 66.6955 191.431C66.3262 191.665 65.8953 191.782 65.4029 191.782ZM65.4029 191.029C65.7769 191.029 66.0847 190.934 66.3262 190.742C66.5676 190.55 66.7464 190.298 66.8624 189.985C66.9784 189.673 67.0364 189.334 67.0364 188.97C67.0364 188.605 66.9784 188.266 66.8624 187.951C66.7464 187.636 66.5676 187.381 66.3262 187.187C66.0847 186.993 65.7769 186.896 65.4029 186.896C65.0288 186.896 64.7211 186.993 64.4796 187.187C64.2381 187.381 64.0594 187.636 63.9434 187.951C63.8274 188.266 63.7694 188.605 63.7694 188.97C63.7694 189.334 63.8274 189.673 63.9434 189.985C64.0594 190.298 64.2381 190.55 64.4796 190.742C64.7211 190.934 65.0288 191.029 65.4029 191.029Z" fill="white"/>
<g filter="url(#filter5_di_1904_188)">
<path d="M26.8175 211.892C25.9624 211.889 25.2266 211.679 24.6101 211.261C23.9969 210.843 23.5246 210.239 23.1932 209.446C22.8651 208.654 22.7027 207.701 22.706 206.588C22.706 205.477 22.87 204.531 23.1982 203.749C23.5296 202.967 24.0019 202.372 24.6151 201.964C25.2315 201.553 25.9657 201.348 26.8175 201.348C27.6693 201.348 28.4018 201.553 29.0149 201.964C29.6314 202.375 30.1054 202.972 30.4368 203.754C30.7682 204.533 30.9323 205.477 30.929 206.588C30.929 207.705 30.7633 208.659 30.4318 209.451C30.1037 210.244 29.633 210.848 29.0199 211.266C28.4067 211.684 27.6726 211.892 26.8175 211.892ZM26.8175 210.108C27.4008 210.108 27.8665 209.814 28.2145 209.228C28.5625 208.641 28.7348 207.761 28.7315 206.588C28.7315 205.815 28.652 205.172 28.4929 204.659C28.3371 204.145 28.1151 203.759 27.8267 203.5C27.5417 203.242 27.2053 203.113 26.8175 203.113C26.2375 203.113 25.7734 203.403 25.4254 203.983C25.0774 204.563 24.9018 205.431 24.8984 206.588C24.8984 207.37 24.9763 208.023 25.1321 208.547C25.2912 209.067 25.5149 209.458 25.8033 209.72C26.0916 209.978 26.4297 210.108 26.8175 210.108ZM32.464 211.669V210.118L36.0882 206.762C36.3965 206.463 36.655 206.195 36.8638 205.956C37.0759 205.718 37.2367 205.484 37.3461 205.255C37.4554 205.023 37.5101 204.773 37.5101 204.505C37.5101 204.206 37.4422 203.949 37.3063 203.734C37.1704 203.515 36.9848 203.348 36.7495 203.232C36.5141 203.113 36.2473 203.053 35.949 203.053C35.6375 203.053 35.3657 203.116 35.1337 203.242C34.9017 203.368 34.7227 203.548 34.5968 203.784C34.4708 204.019 34.4078 204.299 34.4078 204.624H32.3645C32.3645 203.958 32.5153 203.379 32.8169 202.889C33.1185 202.398 33.5411 202.019 34.0847 201.75C34.6283 201.482 35.2547 201.348 35.964 201.348C36.6931 201.348 37.3278 201.477 37.8681 201.735C38.4116 201.991 38.8342 202.345 39.1358 202.799C39.4374 203.253 39.5882 203.774 39.5882 204.36C39.5882 204.745 39.512 205.124 39.3596 205.499C39.2104 205.873 38.9436 206.289 38.5591 206.747C38.1747 207.201 37.6328 207.746 36.9334 208.382L35.4469 209.839V209.909H39.7225V211.669H32.464ZM45.7369 201.01L42.4556 213.2H40.631L43.9123 201.01H45.7369ZM50.5009 211.808C49.7585 211.808 49.0972 211.68 48.5172 211.425C47.9405 211.167 47.4848 210.812 47.15 210.361C46.8186 209.907 46.6479 209.383 46.638 208.79H48.8056C48.8188 209.039 48.9 209.257 49.0492 209.446C49.2016 209.632 49.4038 209.776 49.6557 209.879C49.9076 209.982 50.191 210.033 50.5059 210.033C50.834 210.033 51.124 209.975 51.3759 209.859C51.6278 209.743 51.825 209.582 51.9675 209.377C52.11 209.171 52.1813 208.934 52.1813 208.666C52.1813 208.394 52.1051 208.154 51.9526 207.945C51.8034 207.733 51.588 207.567 51.3063 207.448C51.0279 207.329 50.6964 207.269 50.312 207.269H49.3624V205.688H50.312C50.6368 205.688 50.9235 205.632 51.1721 205.519C51.4239 205.406 51.6195 205.25 51.7587 205.052C51.8979 204.849 51.9675 204.614 51.9675 204.346C51.9675 204.09 51.9062 203.867 51.7836 203.674C51.6642 203.479 51.4952 203.326 51.2765 203.217C51.061 203.108 50.8091 203.053 50.5208 203.053C50.2291 203.053 49.9623 203.106 49.7203 203.212C49.4784 203.315 49.2845 203.462 49.1387 203.654C48.9928 203.847 48.915 204.072 48.905 204.331H46.8418C46.8517 203.744 47.0191 203.227 47.3439 202.779C47.6687 202.332 48.1062 201.982 48.6564 201.73C49.2099 201.475 49.8347 201.348 50.5307 201.348C51.2334 201.348 51.8482 201.475 52.3752 201.73C52.9022 201.986 53.3115 202.33 53.6032 202.765C53.8981 203.195 54.044 203.679 54.0407 204.216C54.044 204.786 53.8667 205.262 53.5087 205.643C53.1541 206.024 52.6917 206.266 52.1216 206.369V206.449C52.8707 206.545 53.4408 206.805 53.8319 207.229C54.2263 207.65 54.4218 208.177 54.4185 208.81C54.4218 209.39 54.2544 209.905 53.9164 210.356C53.5816 210.807 53.1193 211.162 52.5293 211.42C51.9393 211.679 51.2632 211.808 50.5009 211.808ZM59.9581 211.892C59.103 211.889 58.3672 211.679 57.7507 211.261C57.1375 210.843 56.6652 210.239 56.3338 209.446C56.0057 208.654 55.8433 207.701 55.8466 206.588C55.8466 205.477 56.0107 204.531 56.3388 203.749C56.6702 202.967 57.1425 202.372 57.7557 201.964C58.3722 201.553 59.1063 201.348 59.9581 201.348C60.8099 201.348 61.5424 201.553 62.1555 201.964C62.772 202.375 63.246 202.972 63.5774 203.754C63.9089 204.533 64.0729 205.477 64.0696 206.588C64.0696 207.705 63.9039 208.659 63.5724 209.451C63.2443 210.244 62.7737 210.848 62.1605 211.266C61.5473 211.684 60.8132 211.892 59.9581 211.892ZM59.9581 210.108C60.5414 210.108 61.0071 209.814 61.3551 209.228C61.7031 208.641 61.8755 207.761 61.8722 206.588C61.8722 205.815 61.7926 205.172 61.6335 204.659C61.4777 204.145 61.2557 203.759 60.9673 203.5C60.6823 203.242 60.3459 203.113 59.9581 203.113C59.3781 203.113 58.9141 203.403 58.5661 203.983C58.218 204.563 58.0424 205.431 58.0391 206.588C58.0391 207.37 58.117 208.023 58.2727 208.547C58.4318 209.067 58.6555 209.458 58.9439 209.72C59.2322 209.978 59.5703 210.108 59.9581 210.108Z" fill="white"/>
</g>
<path d="M179.623 186.669H178.743C178.691 186.415 178.599 186.193 178.469 186.001C178.341 185.809 178.185 185.648 178 185.518C177.818 185.386 177.616 185.286 177.393 185.22C177.171 185.154 176.939 185.12 176.697 185.12C176.257 185.12 175.858 185.232 175.5 185.454C175.145 185.677 174.862 186.005 174.652 186.438C174.443 186.871 174.339 187.403 174.339 188.032C174.339 188.662 174.443 189.194 174.652 189.627C174.862 190.06 175.145 190.388 175.5 190.61C175.858 190.833 176.257 190.944 176.697 190.944C176.939 190.944 177.171 190.911 177.393 190.845C177.616 190.779 177.818 190.68 178 190.55C178.185 190.418 178.341 190.255 178.469 190.064C178.599 189.869 178.691 189.647 178.743 189.396H179.623C179.557 189.768 179.436 190.1 179.261 190.394C179.086 190.687 178.868 190.937 178.608 191.143C178.347 191.347 178.055 191.502 177.731 191.608C177.409 191.715 177.064 191.768 176.697 191.768C176.077 191.768 175.525 191.617 175.042 191.314C174.559 191.011 174.179 190.58 173.902 190.021C173.625 189.462 173.487 188.799 173.487 188.032C173.487 187.265 173.625 186.602 173.902 186.044C174.179 185.485 174.559 185.054 175.042 184.751C175.525 184.448 176.077 184.297 176.697 184.297C177.064 184.297 177.409 184.35 177.731 184.456C178.055 184.563 178.347 184.719 178.608 184.925C178.868 185.129 179.086 185.377 179.261 185.671C179.436 185.962 179.557 186.295 179.623 186.669ZM181.345 184.396L183.504 190.518H183.589L185.748 184.396H186.671L184.001 191.669H183.092L180.421 184.396H181.345ZM193.315 186.669H192.434C192.382 186.415 192.291 186.193 192.161 186.001C192.033 185.809 191.877 185.648 191.692 185.518C191.51 185.386 191.307 185.286 191.085 185.22C190.862 185.154 190.63 185.12 190.389 185.12C189.948 185.12 189.549 185.232 189.192 185.454C188.837 185.677 188.554 186.005 188.343 186.438C188.135 186.871 188.031 187.403 188.031 188.032C188.031 188.662 188.135 189.194 188.343 189.627C188.554 190.06 188.837 190.388 189.192 190.61C189.549 190.833 189.948 190.944 190.389 190.944C190.63 190.944 190.862 190.911 191.085 190.845C191.307 190.779 191.51 190.68 191.692 190.55C191.877 190.418 192.033 190.255 192.161 190.064C192.291 189.869 192.382 189.647 192.434 189.396H193.315C193.248 189.768 193.128 190.1 192.953 190.394C192.777 190.687 192.56 190.937 192.299 191.143C192.039 191.347 191.746 191.502 191.422 191.608C191.1 191.715 190.756 191.768 190.389 191.768C189.768 191.768 189.217 191.617 188.734 191.314C188.251 191.011 187.871 190.58 187.594 190.021C187.317 189.462 187.178 188.799 187.178 188.032C187.178 187.265 187.317 186.602 187.594 186.044C187.871 185.485 188.251 185.054 188.734 184.751C189.217 184.448 189.768 184.297 190.389 184.297C190.756 184.297 191.1 184.35 191.422 184.456C191.746 184.563 192.039 184.719 192.299 184.925C192.56 185.129 192.777 185.377 192.953 185.671C193.128 185.962 193.248 186.295 193.315 186.669Z" fill="white"/>
<path d="M173.716 211.669V210.118L177.34 206.762C177.648 206.463 177.907 206.195 178.116 205.956C178.328 205.718 178.488 205.484 178.598 205.255C178.707 205.023 178.762 204.773 178.762 204.505C178.762 204.206 178.694 203.949 178.558 203.734C178.422 203.515 178.236 203.348 178.001 203.232C177.766 203.113 177.499 203.053 177.201 203.053C176.889 203.053 176.617 203.116 176.385 203.242C176.153 203.368 175.974 203.548 175.848 203.784C175.723 204.019 175.66 204.299 175.66 204.624H173.616C173.616 203.958 173.767 203.379 174.069 202.889C174.37 202.398 174.793 202.019 175.336 201.75C175.88 201.482 176.506 201.348 177.216 201.348C177.945 201.348 178.58 201.477 179.12 201.735C179.663 201.991 180.086 202.345 180.388 202.799C180.689 203.253 180.84 203.774 180.84 204.36C180.84 204.745 180.764 205.124 180.611 205.499C180.462 205.873 180.195 206.289 179.811 206.747C179.426 207.201 178.884 207.746 178.185 208.382L176.699 209.839V209.909H180.974V211.669H173.716ZM186.298 211.808C185.555 211.808 184.894 211.68 184.314 211.425C183.737 211.167 183.281 210.812 182.947 210.361C182.615 209.907 182.445 209.383 182.435 208.79H184.602C184.615 209.039 184.697 209.257 184.846 209.446C184.998 209.632 185.2 209.776 185.452 209.879C185.704 209.982 185.988 210.033 186.302 210.033C186.631 210.033 186.921 209.975 187.173 209.859C187.424 209.743 187.622 209.582 187.764 209.377C187.907 209.171 187.978 208.934 187.978 208.666C187.978 208.394 187.902 208.154 187.749 207.945C187.6 207.733 187.385 207.567 187.103 207.448C186.825 207.329 186.493 207.269 186.109 207.269H185.159V205.688H186.109C186.433 205.688 186.72 205.632 186.969 205.519C187.221 205.406 187.416 205.25 187.555 205.052C187.695 204.849 187.764 204.614 187.764 204.346C187.764 204.09 187.703 203.867 187.58 203.674C187.461 203.479 187.292 203.326 187.073 203.217C186.858 203.108 186.606 203.053 186.317 203.053C186.026 203.053 185.759 203.106 185.517 203.212C185.275 203.315 185.081 203.462 184.935 203.654C184.789 203.847 184.712 204.072 184.702 204.331H182.638C182.648 203.744 182.816 203.227 183.141 202.779C183.465 202.332 183.903 201.982 184.453 201.73C185.007 201.475 185.631 201.348 186.327 201.348C187.03 201.348 187.645 201.475 188.172 201.73C188.699 201.986 189.108 202.33 189.4 202.765C189.695 203.195 189.841 203.679 189.837 204.216C189.841 204.786 189.663 205.262 189.305 205.643C188.951 206.024 188.488 206.266 187.918 206.369V206.449C188.667 206.545 189.237 206.805 189.628 207.229C190.023 207.65 190.218 208.177 190.215 208.81C190.218 209.39 190.051 209.905 189.713 210.356C189.378 210.807 188.916 211.162 188.326 211.42C187.736 211.679 187.06 211.808 186.298 211.808ZM195.755 211.892C194.9 211.889 194.164 211.679 193.547 211.261C192.934 210.843 192.462 210.239 192.13 209.446C191.802 208.654 191.64 207.701 191.643 206.588C191.643 205.477 191.807 204.531 192.135 203.749C192.467 202.967 192.939 202.372 193.552 201.964C194.169 201.553 194.903 201.348 195.755 201.348C196.607 201.348 197.339 201.553 197.952 201.964C198.569 202.375 199.043 202.972 199.374 203.754C199.705 204.533 199.87 205.477 199.866 206.588C199.866 207.705 199.701 208.659 199.369 209.451C199.041 210.244 198.57 210.848 197.957 211.266C197.344 211.684 196.61 211.892 195.755 211.892ZM195.755 210.108C196.338 210.108 196.804 209.814 197.152 209.228C197.5 208.641 197.672 207.761 197.669 206.588C197.669 205.815 197.589 205.172 197.43 204.659C197.274 204.145 197.052 203.759 196.764 203.5C196.479 203.242 196.143 203.113 195.755 203.113C195.175 203.113 194.711 203.403 194.363 203.983C194.015 204.563 193.839 205.431 193.836 206.588C193.836 207.37 193.914 208.023 194.069 208.547C194.228 209.067 194.452 209.458 194.741 209.72C195.029 209.978 195.367 210.108 195.755 210.108Z" fill="white"/>
<g opacity="0.7">
<rect x="305.23" y="184.439" width="36.3209" height="27.4591" rx="4.20321" fill="white" fill-opacity="0.26" stroke="white" stroke-width="0.898396"/>
<path d="M305.362 192.713H315.248C316.533 192.713 317.575 193.755 317.575 195.039V199.546M317.575 211.788V206.38M317.575 206.38V199.546M317.575 206.38H305.362M317.575 199.546H305.362" stroke="white" stroke-width="0.898396"/>
<path d="M341.418 192.713H329.787M329.787 192.713V199.546M329.787 192.713V184.571M329.787 211.788V206.38M329.787 206.38V199.546M329.787 206.38H341.418M329.787 199.546H341.418" stroke="white" stroke-width="0.898396"/>
</g>
<defs>
<filter id="filter0_b_1904_188" x="-22.1752" y="-22.1752" width="408.35" height="278.35" filterUnits="userSpaceOnUse" color-interpolation-filters="sRGB">
<feFlood flood-opacity="0" result="BackgroundImageFix"/>
<feGaussianBlur in="BackgroundImageFix" stdDeviation="11.4545"/>
<feComposite in2="SourceAlpha" operator="in" result="effect1_backgroundBlur_1904_188"/>
<feBlend mode="normal" in="SourceGraphic" in2="effect1_backgroundBlur_1904_188" result="shape"/>
</filter>
<filter id="filter1_f_1904_188" x="45.2627" y="-223.286" width="468.777" height="351.306" filterUnits="userSpaceOnUse" color-interpolation-filters="sRGB">
<feFlood flood-opacity="0" result="BackgroundImageFix"/>
<feBlend mode="normal" in="SourceGraphic" in2="BackgroundImageFix" result="shape"/>
<feGaussianBlur stdDeviation="27.9144" result="effect1_foregroundBlur_1904_188"/>
</filter>
<filter id="filter2_f_1904_188" x="-7.12112" y="-257.536" width="468.777" height="351.306" filterUnits="userSpaceOnUse" color-interpolation-filters="sRGB">
<feFlood flood-opacity="0" result="BackgroundImageFix"/>
<feBlend mode="normal" in="SourceGraphic" in2="BackgroundImageFix" result="shape"/>
<feGaussianBlur stdDeviation="27.9144" result="effect1_foregroundBlur_1904_188"/>
</filter>
<filter id="filter3_di_1904_188" x="19.9421" y="93.7616" width="282.08" height="24.4939" filterUnits="userSpaceOnUse" color-interpolation-filters="sRGB">
<feFlood flood-opacity="0" result="BackgroundImageFix"/>
<feColorMatrix in="SourceAlpha" type="matrix" values="0 0 0 0 0 0 0 0 0 0 0 0 0 0 0 0 0 0 127 0" result="hardAlpha"/>
<feOffset dy="1.28342"/>
<feGaussianBlur stdDeviation="1.60428"/>
<feComposite in2="hardAlpha" operator="out"/>
<feColorMatrix type="matrix" values="0 0 0 0 0.0916667 0 0 0 0 0.0916667 0 0 0 0 0.0916667 0 0 0 0.4 0"/>
<feBlend mode="normal" in2="BackgroundImageFix" result="effect1_dropShadow_1904_188"/>
<feBlend mode="normal" in="SourceGraphic" in2="effect1_dropShadow_1904_188" result="shape"/>
<feColorMatrix in="SourceAlpha" type="matrix" values="0 0 0 0 0 0 0 0 0 0 0 0 0 0 0 0 0 0 127 0" result="hardAlpha"/>
<feOffset dy="2.56684"/>
<feGaussianBlur stdDeviation="1.28342"/>
<feComposite in2="hardAlpha" operator="arithmetic" k2="-1" k3="1"/>
<feColorMatrix type="matrix" values="0 0 0 0 0.683333 0 0 0 0 0.683333 0 0 0 0 0.683333 0 0 0 0.25 0"/>
<feBlend mode="normal" in2="shape" result="effect2_innerShadow_1904_188"/>
</filter>
<filter id="filter4_di_1904_188" x="20.3182" y="154.348" width="91.0253" height="15.5939" filterUnits="userSpaceOnUse" color-interpolation-filters="sRGB">
<feFlood flood-opacity="0" result="BackgroundImageFix"/>
<feColorMatrix in="SourceAlpha" type="matrix" values="0 0 0 0 0 0 0 0 0 0 0 0 0 0 0 0 0 0 127 0" result="hardAlpha"/>
<feOffset dy="2.56684"/>
<feGaussianBlur stdDeviation="1.28342"/>
<feComposite in2="hardAlpha" operator="out"/>
<feColorMatrix type="matrix" values="0 0 0 0 0.0875 0 0 0 0 0.0875 0 0 0 0 0.0875 0 0 0 0.16 0"/>
<feBlend mode="normal" in2="BackgroundImageFix" result="effect1_dropShadow_1904_188"/>
<feBlend mode="normal" in="SourceGraphic" in2="effect1_dropShadow_1904_188" result="shape"/>
<feColorMatrix in="SourceAlpha" type="matrix" values="0 0 0 0 0 0 0 0 0 0 0 0 0 0 0 0 0 0 127 0" result="hardAlpha"/>
<feOffset dy="2.56684"/>
<feGaussianBlur stdDeviation="1.28342"/>
<feComposite in2="hardAlpha" operator="arithmetic" k2="-1" k3="1"/>
<feColorMatrix type="matrix" values="0 0 0 0 0.682353 0 0 0 0 0.682353 0 0 0 0 0.682353 0 0 0 0.25 0"/>
<feBlend mode="normal" in2="shape" result="effect2_innerShadow_1904_188"/>
</filter>
<filter id="filter5_di_1904_188" x="20.1341" y="201.01" width="46.5072" height="17.324" filterUnits="userSpaceOnUse" color-interpolation-filters="sRGB">
<feFlood flood-opacity="0" result="BackgroundImageFix"/>
<feColorMatrix in="SourceAlpha" type="matrix" values="0 0 0 0 0 0 0 0 0 0 0 0 0 0 0 0 0 0 127 0" result="hardAlpha"/>
<feOffset dy="2.56684"/>
<feGaussianBlur stdDeviation="1.28342"/>
<feComposite in2="hardAlpha" operator="out"/>
<feColorMatrix type="matrix" values="0 0 0 0 0.0875 0 0 0 0 0.0875 0 0 0 0 0.0875 0 0 0 0.16 0"/>
<feBlend mode="normal" in2="BackgroundImageFix" result="effect1_dropShadow_1904_188"/>
<feBlend mode="normal" in="SourceGraphic" in2="effect1_dropShadow_1904_188" result="shape"/>
<feColorMatrix in="SourceAlpha" type="matrix" values="0 0 0 0 0 0 0 0 0 0 0 0 0 0 0 0 0 0 127 0" result="hardAlpha"/>
<feOffset dy="2.56684"/>
<feGaussianBlur stdDeviation="1.28342"/>
<feComposite in2="hardAlpha" operator="arithmetic" k2="-1" k3="1"/>
<feColorMatrix type="matrix" values="0 0 0 0 0.682353 0 0 0 0 0.682353 0 0 0 0 0.682353 0 0 0 0.25 0"/>
<feBlend mode="normal" in2="shape" result="effect2_innerShadow_1904_188"/>
</filter>
<linearGradient id="paint0_linear_1904_188" x1="2" y1="2" x2="130.405" y2="324.275" gradientUnits="userSpaceOnUse">
<stop stop-color="white" stop-opacity="0.4"/>
<stop offset="1" stop-color="white" stop-opacity="0"/>
</linearGradient>
<radialGradient id="paint1_radial_1904_188" cx="0" cy="0" r="1" gradientUnits="userSpaceOnUse" gradientTransform="translate(2 2) rotate(32.5741) scale(427.2 269.348)">
<stop stop-color="white" stop-opacity="0.7"/>
<stop offset="0.677083" stop-color="#B691FF" stop-opacity="0.4"/>
<stop offset="1" stop-color="white" stop-opacity="0"/>
</radialGradient>
<linearGradient id="paint2_linear_1904_188" x1="351.951" y1="228.167" x2="316.94" y2="84.1868" gradientUnits="userSpaceOnUse">
<stop stop-color="white" stop-opacity="0.32"/>
<stop offset="0.140625" stop-color="#F9FFF5"/>
<stop offset="1" stop-color="white" stop-opacity="0"/>
</linearGradient>
<linearGradient id="paint3_linear_1904_188" x1="357.631" y1="3.74243" x2="323.401" y2="148.648" gradientUnits="userSpaceOnUse">
<stop stop-color="#53555E"/>
<stop offset="1" stop-color="white" stop-opacity="0"/>
</linearGradient>
</defs>
</svg>
